<?xml version="1.0" encoding="utf-8"?>
<!-- Generator: Adobe Illustrator 24.2.0, SVG Export Plug-In . SVG Version: 6.00 Build 0)  -->
<svg version="1.1" id="Layer_1" xmlns="http://www.w3.org/2000/svg" xmlns:xlink="http://www.w3.org/1999/xlink" x="0px" y="0px"
	 viewBox="0 0 1167.8 347" style="enable-background:new 0 0 1167.8 347;" xml:space="preserve">
<style type="text/css">
	.st0{opacity:0.8;fill:#EEAE6A;enable-background:new    ;}
	.st1{fill:#FFFFFF;}
	.st2{opacity:0.1;fill:#FFFFFF;enable-background:new    ;}
	.st3{font-family:'ArialMT';}
	.st4{font-size:6.5078px;}
	
		.st5{opacity:0.1;fill:none;stroke:#FFFFFF;stroke-width:0.75;stroke-linecap:round;stroke-linejoin:round;stroke-miterlimit:10;enable-background:new    ;}
	.st6{opacity:0.1;fill:#ED312E;enable-background:new    ;}
	
		.st7{opacity:0.6;fill:none;stroke:#ED312E;stroke-width:0.75;stroke-linecap:round;stroke-linejoin:round;stroke-miterlimit:10;enable-background:new    ;}
	.st8{opacity:0.1;fill:#F181A7;enable-background:new    ;}
	
		.st9{opacity:0.1;fill:none;stroke:#4992CA;stroke-width:0.75;stroke-linecap:round;stroke-linejoin:round;stroke-miterlimit:10;enable-background:new    ;}
</style>
<path d="M1167.8,348.9H2.6c-6.6,0-12-5.4-12-12V12c0-6.6,5.4-12,12-12h1165.2c6.6,0,12,5.4,12,12v324.9
	C1179.8,343.5,1174.4,348.9,1167.8,348.9z"/>
<g>
	<g id="RqxFph_1_">
	</g>
</g>
<g>
	<path class="st0" d="M509.6,134.3h17.6v2H512v12.3h11.9v2H512v14.6h-2.4V134.3L509.6,134.3z"/>
	<path class="st0" d="M530.6,149.9v-0.4c0-8.8,6.3-15.6,15-15.6s15,6.9,15,15.6v0.4c0,8.7-6.3,15.7-15,15.7
		C536.9,165.5,530.6,158.6,530.6,149.9z M558.1,149.8v-0.4c0-7.5-5-13.5-12.5-13.5s-12.6,5.8-12.6,13.6v0.4
		c0,7.9,5.5,13.6,12.7,13.6C553.1,163.5,558.1,157.7,558.1,149.8z"/>
	<path class="st0" d="M566.9,134.3h8.5c6,0,10.5,2.3,10.5,8.3v0.2c0,5.1-3.4,7.5-8,8.2l9.8,14.3H585l-9.7-14.1h-6v14.1h-2.4
		L566.9,134.3L566.9,134.3z M575.5,149.2c5,0,8-1.9,8-6.4v-0.2c0-4.8-3.2-6.3-8-6.3h-6.2v12.9H575.5z"/>
	<path class="st0" d="M590.9,149.9v-0.4c0-9,6.3-15.7,14.7-15.7c5.9,0,11.2,2.8,12.4,9.2h-2.4c-1.1-5.1-5-7.3-9.9-7.3
		c-7.4,0-12.3,5.7-12.3,13.7v0.4c0,8.2,4.4,13.6,12.3,13.6c7.2,0,10.8-4.4,10.9-11.2V152h-9.5v-2H619v1.8c0,8.9-5.3,13.6-13.3,13.6
		C596.5,165.5,590.9,159,590.9,149.9z"/>
	<path class="st0" d="M625.3,134.3H643v2h-15.3v12.1h12.4v2h-12.4v12.9h16.1v2h-18.5V134.3L625.3,134.3z"/>
	<path class="st0" d="M646.6,164.6l12.4-12.8c3.3-3.4,4.8-6.2,4.8-9.5c0-4.1-2.6-6.4-6.6-6.4s-6.8,2.3-7.4,7.3h-2.2
		c0.5-5.8,4.2-9.3,9.6-9.3c5.3,0,9,3.1,9,8.4c0,3.8-2.1,7.2-5.9,10.9l-10,9.9h16.3v2h-20.1L646.6,164.6L646.6,164.6z"/>
	<path class="st1" d="M278.6,201.6v-0.3c0-7.4,5.2-12.7,11.6-12.7c5.1,0,9.2,2.7,10.1,7.6H299c-0.9-4.1-4-6.6-8.8-6.6
		c-5.9,0-10.4,4.8-10.4,11.6v0.3c0,7,4,11.6,10.4,11.6c4.8,0,8.3-2.6,9.2-7.1h1.2c-1,5.2-5.1,8.2-10.4,8.2
		C283.1,214.2,278.6,209.1,278.6,201.6z"/>
	<path class="st1" d="M303.9,204.9v-0.3c0-5.5,3.5-9.4,8.3-9.4c4.5,0,7.9,3.1,7.9,8.9v0.5h-15c0,5.4,2.6,8.5,7.4,8.5
		c3.2,0,5.6-1.4,6.3-4.3h1.2c-0.8,3.4-3.7,5.4-7.5,5.4C307.1,214.3,303.9,210.4,303.9,204.9z M318.9,203.7c-0.1-4.9-2.8-7.3-6.7-7.3
		s-6.8,2.9-7.1,7.3H318.9z"/>
	<path class="st1" d="M324.5,186.8h1.2V214h-1.2V186.8z"/>
	<path class="st1" d="M331.6,186.8h1.2V214h-1.2V186.8z"/>
	<path class="st1" d="M347.6,209.7v-13.1h-2.8v-1h2.8v-4.2h1.2v4.2h5.1v1h-5.1v13c0,2.5,1.2,3.6,3.1,3.6c1,0,1.7-0.1,2.3-0.4v1.1
		c-0.6,0.2-1.3,0.4-2.4,0.4C349.2,214.2,347.6,212.7,347.6,209.7z"/>
	<path class="st1" d="M363.8,212.6l-7.3-17h1.3l6.7,15.6l6.4-15.6h1.3l-10.3,24.8h-1.2L363.8,212.6z"/>
	<path class="st1" d="M375.8,195.6h1.2v5.1c1.1-2.8,3.9-5.4,7.5-5.4c4.5,0,8.2,3.6,8.2,9.3v0.3c0,5.9-3.6,9.4-8.2,9.4
		c-4,0-6.5-2.7-7.5-5.2v11.3h-1.2V195.6z M391.4,204.9v-0.3c0-5.4-3.2-8.3-7-8.3c-3.7,0-7.4,3-7.4,8.3v0.3c0,5.2,3.4,8.3,7.4,8.3
		C388.5,213.2,391.4,210.2,391.4,204.9z"/>
	<path class="st1" d="M395.6,204.9v-0.3c0-5.5,3.5-9.4,8.3-9.4c4.5,0,7.9,3.1,7.9,8.9v0.5h-15c0,5.4,2.6,8.5,7.4,8.5
		c3.2,0,5.6-1.4,6.3-4.3h1.2c-0.8,3.4-3.7,5.4-7.5,5.4C398.9,214.3,395.6,210.4,395.6,204.9z M410.7,203.7c-0.1-4.9-2.8-7.3-6.7-7.3
		s-6.8,2.9-7.1,7.3H410.7z"/>
	<path class="st1" d="M415.6,203.6h7.3v1.2h-7.3V203.6z"/>
	<path class="st1" d="M426.3,208.6h1.2c0.4,2.7,2.1,4.7,5.8,4.7c3.3,0,5.1-1.8,5.1-4.1c0-2.7-1.3-3.4-5.1-4.1
		c-4.3-0.8-6.3-1.8-6.3-5c0-2.9,2.7-4.7,6-4.7s5.7,1.4,6.2,4.8H438c-0.5-2.6-2.2-3.8-5.1-3.8s-4.9,1.5-4.9,3.7
		c0,2.4,1.5,3.2,5.5,3.9s6,1.7,6,5.1c0,2.9-2.3,5.2-6.3,5.2C429.1,214.3,426.6,211.9,426.3,208.6z"/>
	<path class="st1" d="M444,195.6h1.2v5.1c1.1-2.8,3.9-5.4,7.5-5.4c4.5,0,8.2,3.6,8.2,9.3v0.3c0,5.9-3.6,9.4-8.2,9.4
		c-4,0-6.5-2.7-7.5-5.2v11.3H444V195.6z M459.6,204.9v-0.3c0-5.4-3.2-8.3-7-8.3c-3.7,0-7.4,3-7.4,8.3v0.3c0,5.2,3.4,8.3,7.4,8.3
		S459.6,210.2,459.6,204.9z"/>
	<path class="st1" d="M463.8,204.9v-0.3c0-5.5,3.5-9.4,8.3-9.4c4.5,0,7.9,3.1,7.9,8.9v0.5h-15c0,5.4,2.6,8.5,7.4,8.5
		c3.2,0,5.6-1.4,6.3-4.3h1.2c-0.8,3.4-3.7,5.4-7.5,5.4C467,214.3,463.8,210.4,463.8,204.9z M478.8,203.7c-0.1-4.9-2.8-7.3-6.7-7.3
		s-6.8,2.9-7.1,7.3H478.8z"/>
	<path class="st1" d="M483,204.9v-0.3c0-5.6,3.9-9.4,8.7-9.4c3.7,0,7,2.1,7.5,5.9H498c-0.4-3.2-3.2-4.9-6.3-4.9
		c-4.1,0-7.5,3.2-7.5,8.3v0.3c0,5.1,3.3,8.3,7.4,8.3c3.3,0,6-1.9,6.6-5.5h1.1c-0.6,3.9-3.7,6.5-7.7,6.5
		C486.8,214.3,483,210.5,483,204.9z"/>
	<path class="st1" d="M503.3,190.6c0-0.5,0.4-0.9,1-0.9s0.9,0.4,0.9,0.9s-0.4,0.9-0.9,0.9C503.7,191.6,503.3,191.1,503.3,190.6z
		 M503.7,195.6h1.2V214h-1.2V195.6z"/>
	<path class="st1" d="M511.6,196.6h-2.9v-1h2.9v-3.5c0-3.9,2.3-5.4,5.1-5.4c0.8,0,1.3,0.1,1.9,0.3v1.1c-0.5-0.2-1.1-0.3-1.9-0.3
		c-2.1,0-3.8,1.1-3.8,4.3v3.6h5.5v1h-5.5V214h-1.2L511.6,196.6L511.6,196.6z"/>
	<path class="st1" d="M521.8,190.6c0-0.5,0.4-0.9,1-0.9s0.9,0.4,0.9,0.9s-0.4,0.9-0.9,0.9C522.2,191.6,521.8,191.1,521.8,190.6z
		 M522.1,195.6h1.2V214h-1.2V195.6z"/>
	<path class="st1" d="M527.7,204.9v-0.3c0-5.6,3.9-9.4,8.7-9.4c3.7,0,7,2.1,7.5,5.9h-1.2c-0.4-3.2-3.2-4.9-6.3-4.9
		c-4.1,0-7.5,3.2-7.5,8.3v0.3c0,5.1,3.3,8.3,7.4,8.3c3.3,0,6-1.9,6.6-5.5h1.1c-0.6,3.9-3.7,6.5-7.7,6.5
		C531.5,214.3,527.7,210.5,527.7,204.9z"/>
	<path class="st1" d="M555.4,209.1c0-4.3,3.8-5.5,8.3-5.5h4.6v-1.8c0-3.8-1.6-5.4-5.1-5.4c-2.9,0-5.2,1.3-5.7,4.3h-1.2
		c0.5-3.6,3.6-5.3,6.9-5.3c4.1,0,6.3,2.1,6.3,6.5V214h-1.2v-3.1c-1.1,1.8-3.2,3.4-6.5,3.4C557.9,214.3,555.4,212.4,555.4,209.1z
		 M568.2,208.4v-3.8h-4.6c-3.9,0-7.1,0.9-7.1,4.5c0,2.7,1.8,4.1,5.2,4.1C565.3,213.3,568.2,211.1,568.2,208.4z"/>
	<path class="st1" d="M574.9,195.6h1.2v4c0.8-2.2,3.5-4.3,6.9-4.3c4,0,6.6,2.2,6.6,7.3V214h-1.2v-11.4c0-4.3-2.1-6.2-5.6-6.2
		c-3.3,0-6.7,2.2-6.7,6.5V214h-1.2V195.6L574.9,195.6z"/>
	<path class="st1" d="M593.9,209.1c0-4.3,3.8-5.5,8.3-5.5h4.6v-1.8c0-3.8-1.6-5.4-5.1-5.4c-2.9,0-5.2,1.3-5.7,4.3h-1.2
		c0.5-3.6,3.6-5.3,6.9-5.3c4.1,0,6.3,2.1,6.3,6.5V214h-1.2v-3.1c-1.1,1.8-3.2,3.4-6.5,3.4C596.4,214.3,593.9,212.4,593.9,209.1z
		 M606.7,208.4v-3.8h-4.6c-3.9,0-7.1,0.9-7.1,4.5c0,2.7,1.8,4.1,5.2,4.1C603.8,213.3,606.7,211.1,606.7,208.4z"/>
	<path class="st1" d="M613.5,186.8h1.2V214h-1.2V186.8z"/>
	<path class="st1" d="M625.9,212.6l-7.3-17h1.3l6.7,15.6l6.4-15.6h1.3L624,220.4h-1.2L625.9,212.6z"/>
	<path class="st1" d="M636.2,208.6h1.2c0.3,2.7,2.2,4.7,5.8,4.7c3.3,0,5.1-1.8,5.1-4.1c0-2.7-1.3-3.4-5.1-4.1
		c-4.3-0.8-6.3-1.8-6.3-5c0-2.9,2.7-4.7,6-4.7s5.7,1.4,6.2,4.8h-1.2c-0.5-2.6-2.2-3.8-5.1-3.8c-2.9,0-4.9,1.5-4.9,3.7
		c0,2.4,1.5,3.2,5.5,3.9s6,1.7,6,5.1c0,2.9-2.3,5.2-6.3,5.2C638.9,214.3,636.5,211.9,636.2,208.6z"/>
	<path class="st1" d="M653.5,190.6c0-0.5,0.4-0.9,1-0.9s0.9,0.4,0.9,0.9s-0.4,0.9-0.9,0.9C654,191.6,653.5,191.1,653.5,190.6z
		 M653.9,195.6h1.2V214h-1.2V195.6z"/>
	<path class="st1" d="M659.3,208.6h1.2c0.3,2.7,2.2,4.7,5.8,4.7c3.3,0,5.1-1.8,5.1-4.1c0-2.7-1.3-3.4-5.1-4.1
		c-4.3-0.8-6.3-1.8-6.3-5c0-2.9,2.7-4.7,6-4.7s5.7,1.4,6.2,4.8H671c-0.5-2.6-2.2-3.8-5.1-3.8c-2.9,0-4.9,1.5-4.9,3.7
		c0,2.4,1.5,3.2,5.5,3.9s6,1.7,6,5.1c0,2.9-2.3,5.2-6.3,5.2C662,214.3,659.6,211.9,659.3,208.6z"/>
	<path class="st1" d="M683.8,204.9v-0.3c0-5.5,4-9.3,8.8-9.3s8.7,3.7,8.7,9.3v0.3c0,5.6-4,9.4-8.8,9.4
		C687.8,214.3,683.8,210.4,683.8,204.9z M700.2,204.9v-0.3c0-5.2-3.5-8.3-7.5-8.3c-4.1,0-7.6,3.2-7.6,8.3v0.3c0,5,3.4,8.3,7.6,8.3
		C696.7,213.2,700.2,210,700.2,204.9z"/>
	<path class="st1" d="M706.5,196.6h-2.9v-1h2.9v-3.5c0-3.9,2.3-5.4,5.1-5.4c0.8,0,1.3,0.1,1.9,0.3v1.1c-0.5-0.2-1.1-0.3-1.9-0.3
		c-2.1,0-3.8,1.1-3.8,4.3v3.6h5.5v1h-5.5V214h-1.2L706.5,196.6L706.5,196.6z"/>
	<path class="st1" d="M724.2,201.6v-0.3c0-7.4,5.2-12.7,11.9-12.7c4.8,0,9,2.2,10,7.1h-1.3c-1-4.2-4.4-6.1-8.7-6.1
		c-6.2,0-10.6,4.8-10.6,11.6v0.3c0,7,3.9,11.6,10.7,11.6c6.2,0,9.5-3.7,9.5-9.8v-0.2h-8V202h9.2v1.2c0,7.2-4.3,11.1-10.7,11.1
		C728.7,214.2,724.2,209,724.2,201.6z"/>
	<path class="st1" d="M749,188.8h1.3l6.2,23.3l7.1-23.3h0.9l6.7,23.4l6.6-23.4h1.2l-7.2,25.2h-1.3l-6.5-22.8l-7,22.8h-1.3L749,188.8
		z"/>
	<path class="st1" d="M788.1,188.8h1.7l9.4,25.2h-1.3l-3-8H783l-3,8h-1.2L788.1,188.8z M783.3,204.9h11.2l-5.6-15.1L783.3,204.9z"/>
	<path class="st1" d="M800.9,207.1h1.2c0.5,3.3,2.6,6.1,7.9,6.1c4.4,0,7-2.5,7-5.8c0-3.9-1.9-5.1-7.2-5.9c-5.6-0.8-8-2.8-8-6.4
		c0-3.9,3.1-6.4,7.8-6.4c4.5,0,7.2,2.2,7.7,5.9h-1.2c-0.6-3.1-2.6-4.9-6.5-4.9c-4.1,0-6.6,1.9-6.6,5.3c0,3,1.7,4.6,6.9,5.4
		c5.7,0.8,8.2,2.3,8.2,7c0,3.8-3.1,6.9-8.3,6.9C804.1,214.2,801.4,211.1,800.9,207.1z"/>
	<path class="st1" d="M829.9,205v-0.3c0-5.7,3.8-9.4,8.5-9.4c3.9,0,6.1,2.5,7.1,5.1v-13.6h1.2V214h-1.2v-4.9
		c-0.9,2.4-3.5,5.2-7.4,5.2C833.5,214.3,829.9,210.9,829.9,205z M845.6,204.9v-0.3c0-5.3-3.1-8.3-7.1-8.3c-4.1,0-7.4,3-7.4,8.3v0.3
		c0,5.3,3.1,8.3,7.1,8.3C842.2,213.2,845.6,210.2,845.6,204.9z"/>
	<path class="st1" d="M851.2,209.1c0-4.3,3.8-5.5,8.3-5.5h4.6v-1.8c0-3.8-1.6-5.4-5.1-5.4c-2.9,0-5.2,1.3-5.7,4.3H852
		c0.5-3.6,3.6-5.3,6.9-5.3c4.1,0,6.3,2.1,6.3,6.5V214H864v-3.1c-1.1,1.8-3.2,3.4-6.5,3.4C853.7,214.3,851.2,212.4,851.2,209.1z
		 M864,208.4v-3.8h-4.6c-3.9,0-7.1,0.9-7.1,4.5c0,2.7,1.8,4.1,5.2,4.1C861.1,213.3,864,211.1,864,208.4z"/>
	<path class="st1" d="M871.5,209.7v-13.1h-2.8v-1h2.8v-4.2h1.2v4.2h5.1v1h-5.1v13c0,2.5,1.2,3.6,3.1,3.6c1,0,1.7-0.1,2.3-0.4v1.1
		c-0.6,0.2-1.3,0.4-2.4,0.4C873.1,214.2,871.5,212.7,871.5,209.7z"/>
	<path class="st1" d="M881.1,209.1c0-4.3,3.8-5.5,8.3-5.5h4.6v-1.8c0-3.8-1.6-5.4-5.1-5.4c-2.9,0-5.2,1.3-5.7,4.3H882
		c0.5-3.6,3.6-5.3,6.9-5.3c4.1,0,6.3,2.1,6.3,6.5V214H894v-3.1c-1.1,1.8-3.2,3.4-6.5,3.4C883.6,214.3,881.1,212.4,881.1,209.1z
		 M893.9,208.4v-3.8h-4.6c-3.9,0-7.1,0.9-7.1,4.5c0,2.7,1.8,4.1,5.2,4.1C891,213.3,893.9,211.1,893.9,208.4z"/>
</g>
<text transform="matrix(1 0 0 1 151.8199 258.2432)" class="st2 st3 st4">●</text>
<text transform="matrix(1 0 0 1 151.8199 258.2432)" class="st5 st3 st4">●</text>
<text transform="matrix(1 0 0 1 151.8199 257)" class="st2 st3 st4">●</text>
<text transform="matrix(1 0 0 1 151.8199 257)" class="st5 st3 st4">●</text>
<text transform="matrix(1 0 0 1 151.8199 258.2861)" class="st2 st3 st4">●</text>
<text transform="matrix(1 0 0 1 151.8199 258.2861)" class="st5 st3 st4">●</text>
<text transform="matrix(1 0 0 1 151.8199 217.2471)" class="st2 st3 st4">●</text>
<text transform="matrix(1 0 0 1 151.8199 217.2471)" class="st5 st3 st4">●</text>
<text transform="matrix(1 0 0 1 208.9985 181.3057)" class="st2 st3 st4">●</text>
<text transform="matrix(1 0 0 1 208.9985 181.3057)" class="st5 st3 st4">●</text>
<text transform="matrix(1 0 0 1 208.9985 263.6729)" class="st2 st3 st4">●</text>
<text transform="matrix(1 0 0 1 208.9985 263.6729)" class="st5 st3 st4">●</text>
<text transform="matrix(1 0 0 1 189.9332 264.543)" class="st2 st3 st4">●</text>
<text transform="matrix(1 0 0 1 189.9332 264.543)" class="st5 st3 st4">●</text>
<text transform="matrix(1 0 0 1 189.9332 260.6455)" class="st2 st3 st4">●</text>
<text transform="matrix(1 0 0 1 189.9332 260.6455)" class="st5 st3 st4">●</text>
<text transform="matrix(1 0 0 1 189.9332 243.4971)" class="st2 st3 st4">●</text>
<text transform="matrix(1 0 0 1 189.9332 243.4971)" class="st5 st3 st4">●</text>
<text transform="matrix(1 0 0 1 189.9332 276.4531)" class="st2 st3 st4">●</text>
<text transform="matrix(1 0 0 1 189.9332 276.4531)" class="st5 st3 st4">●</text>
<text transform="matrix(1 0 0 1 285.2389 243.2891)" class="st2 st3 st4">●</text>
<text transform="matrix(1 0 0 1 285.2389 243.2891)" class="st5 st3 st4">●</text>
<text transform="matrix(1 0 0 1 266.1842 276.4531)" class="st2 st3 st4">●</text>
<text transform="matrix(1 0 0 1 266.1842 276.4531)" class="st5 st3 st4">●</text>
<text transform="matrix(1 0 0 1 266.1842 276.4531)" class="st2 st3 st4">●</text>
<text transform="matrix(1 0 0 1 266.1842 276.4531)" class="st5 st3 st4">●</text>
<text transform="matrix(1 0 0 1 266.1842 276.4531)" class="st2 st3 st4">●</text>
<text transform="matrix(1 0 0 1 266.1842 276.4531)" class="st5 st3 st4">●</text>
<text transform="matrix(1 0 0 1 266.1842 276.4531)" class="st2 st3 st4">●</text>
<text transform="matrix(1 0 0 1 266.1842 276.4531)" class="st5 st3 st4">●</text>
<text transform="matrix(1 0 0 1 94.6412 260.0625)" class="st2 st3 st4">●</text>
<text transform="matrix(1 0 0 1 94.6412 260.0625)" class="st5 st3 st4">●</text>
<text transform="matrix(1 0 0 1 94.6412 260.2881)" class="st2 st3 st4">●</text>
<text transform="matrix(1 0 0 1 94.6412 260.2881)" class="st5 st3 st4">●</text>
<text transform="matrix(1 0 0 1 113.6959 206.46)" class="st2 st3 st4">●</text>
<text transform="matrix(1 0 0 1 113.6959 206.46)" class="st5 st3 st4">●</text>
<text transform="matrix(1 0 0 1 113.6959 234.1348)" class="st2 st3 st4">●</text>
<text transform="matrix(1 0 0 1 113.6959 234.1348)" class="st5 st3 st4">●</text>
<text transform="matrix(1 0 0 1 113.6959 239.8789)" class="st2 st3 st4">●</text>
<text transform="matrix(1 0 0 1 113.6959 239.8789)" class="st5 st3 st4">●</text>
<text transform="matrix(1 0 0 1 132.7584 199.8477)" class="st2 st3 st4">●</text>
<text transform="matrix(1 0 0 1 132.7584 199.8477)" class="st5 st3 st4">●</text>
<text transform="matrix(1 0 0 1 170.8813 236.6494)" class="st2 st3 st4">●</text>
<text transform="matrix(1 0 0 1 170.8813 236.6494)" class="st5 st3 st4">●</text>
<text transform="matrix(1 0 0 1 170.8813 260.7324)" class="st2 st3 st4">●</text>
<text transform="matrix(1 0 0 1 170.8813 260.7324)" class="st5 st3 st4">●</text>
<text transform="matrix(1 0 0 1 170.8813 229.7861)" class="st2 st3 st4">●</text>
<text transform="matrix(1 0 0 1 170.8813 229.7861)" class="st5 st3 st4">●</text>
<text transform="matrix(1 0 0 1 170.8813 206.1641)" class="st2 st3 st4">●</text>
<text transform="matrix(1 0 0 1 170.8813 206.1641)" class="st5 st3 st4">●</text>
<text transform="matrix(1 0 0 1 170.8813 239.3926)" class="st2 st3 st4">●</text>
<text transform="matrix(1 0 0 1 170.8813 239.3926)" class="st5 st3 st4">●</text>
<text transform="matrix(1 0 0 1 170.8813 130.2363)" class="st2 st3 st4">●</text>
<text transform="matrix(1 0 0 1 170.8813 130.2363)" class="st5 st3 st4">●</text>
<text transform="matrix(1 0 0 1 170.8813 262.2344)" class="st2 st3 st4">●</text>
<text transform="matrix(1 0 0 1 170.8813 262.2344)" class="st5 st3 st4">●</text>
<text transform="matrix(1 0 0 1 170.8813 238.7715)" class="st2 st3 st4">●</text>
<text transform="matrix(1 0 0 1 170.8813 238.7715)" class="st5 st3 st4">●</text>
<text transform="matrix(1 0 0 1 170.8813 260.6914)" class="st2 st3 st4">●</text>
<text transform="matrix(1 0 0 1 170.8813 260.6914)" class="st5 st3 st4">●</text>
<text transform="matrix(1 0 0 1 170.8813 240.2344)" class="st2 st3 st4">●</text>
<text transform="matrix(1 0 0 1 170.8813 240.2344)" class="st5 st3 st4">●</text>
<text transform="matrix(1 0 0 1 170.8813 56.2402)" class="st6 st3 st4">●</text>
<text transform="matrix(1 0 0 1 170.8813 56.2402)" class="st7 st3 st4">●</text>
<text transform="matrix(1 0 0 1 170.8813 175.8955)" class="st2 st3 st4">●</text>
<text transform="matrix(1 0 0 1 170.8813 175.8955)" class="st5 st3 st4">●</text>
<text transform="matrix(1 0 0 1 170.8813 261.4814)" class="st2 st3 st4">●</text>
<text transform="matrix(1 0 0 1 170.8813 261.4814)" class="st5 st3 st4">●</text>
<text transform="matrix(1 0 0 1 170.8813 214.1602)" class="st2 st3 st4">●</text>
<text transform="matrix(1 0 0 1 170.8813 214.1602)" class="st5 st3 st4">●</text>
<text transform="matrix(1 0 0 1 247.1246 248.4922)" class="st2 st3 st4">●</text>
<text transform="matrix(1 0 0 1 247.1246 248.4922)" class="st5 st3 st4">●</text>
<text transform="matrix(1 0 0 1 228.061 254.7646)" class="st2 st3 st4">●</text>
<text transform="matrix(1 0 0 1 228.061 254.7646)" class="st5 st3 st4">●</text>
<text transform="matrix(1 0 0 1 228.061 263.3242)" class="st2 st3 st4">●</text>
<text transform="matrix(1 0 0 1 228.061 263.3242)" class="st5 st3 st4">●</text>
<text transform="matrix(1 0 0 1 304.3014 265.7344)" class="st2 st3 st4">●</text>
<text transform="matrix(1 0 0 1 304.3014 265.7344)" class="st5 st3 st4">●</text>
<text transform="matrix(1 0 0 1 304.3014 245.0449)" class="st2 st3 st4">●</text>
<text transform="matrix(1 0 0 1 304.3014 245.0449)" class="st5 st3 st4">●</text>
<text transform="matrix(1 0 0 1 323.3619 232.499)" class="st2 st3 st4">●</text>
<text transform="matrix(1 0 0 1 323.3619 232.499)" class="st5 st3 st4">●</text>
<text transform="matrix(1 0 0 1 323.3619 259.0254)" class="st2 st3 st4">●</text>
<text transform="matrix(1 0 0 1 323.3619 259.0254)" class="st5 st3 st4">●</text>
<text transform="matrix(1 0 0 1 342.4244 212.2539)" class="st2 st3 st4">●</text>
<text transform="matrix(1 0 0 1 342.4244 212.2539)" class="st5 st3 st4">●</text>
<text transform="matrix(1 0 0 1 342.4244 245.4199)" class="st2 st3 st4">●</text>
<text transform="matrix(1 0 0 1 342.4244 245.4199)" class="st5 st3 st4">●</text>
<text transform="matrix(1 0 0 1 361.4806 265.1699)" class="st2 st3 st4">●</text>
<text transform="matrix(1 0 0 1 361.4806 265.1699)" class="st5 st3 st4">●</text>
<text transform="matrix(1 0 0 1 361.4806 194.8096)" class="st2 st3 st4">●</text>
<text transform="matrix(1 0 0 1 361.4806 194.8096)" class="st5 st3 st4">●</text>
<text transform="matrix(1 0 0 1 380.5411 247.4287)" class="st2 st3 st4">●</text>
<text transform="matrix(1 0 0 1 380.5411 247.4287)" class="st5 st3 st4">●</text>
<text transform="matrix(1 0 0 1 380.5411 267.8672)" class="st2 st3 st4">●</text>
<text transform="matrix(1 0 0 1 380.5411 267.8672)" class="st5 st3 st4">●</text>
<text transform="matrix(1 0 0 1 399.6036 239.9922)" class="st2 st3 st4">●</text>
<text transform="matrix(1 0 0 1 399.6036 239.9922)" class="st5 st3 st4">●</text>
<text transform="matrix(1 0 0 1 399.6036 224.6699)" class="st2 st3 st4">●</text>
<text transform="matrix(1 0 0 1 399.6036 224.6699)" class="st5 st3 st4">●</text>
<text transform="matrix(1 0 0 1 418.6681 276.4531)" class="st2 st3 st4">●</text>
<text transform="matrix(1 0 0 1 418.6681 276.4531)" class="st5 st3 st4">●</text>
<text transform="matrix(1 0 0 1 418.6681 265.0898)" class="st2 st3 st4">●</text>
<text transform="matrix(1 0 0 1 418.6681 265.0898)" class="st5 st3 st4">●</text>
<text transform="matrix(1 0 0 1 437.7208 253.9902)" class="st2 st3 st4">●</text>
<text transform="matrix(1 0 0 1 437.7208 253.9902)" class="st5 st3 st4">●</text>
<text transform="matrix(1 0 0 1 437.7208 246.2305)" class="st2 st3 st4">●</text>
<text transform="matrix(1 0 0 1 437.7208 246.2305)" class="st5 st3 st4">●</text>
<text transform="matrix(1 0 0 1 437.7208 254.4053)" class="st2 st3 st4">●</text>
<text transform="matrix(1 0 0 1 437.7208 254.4053)" class="st5 st3 st4">●</text>
<text transform="matrix(1 0 0 1 456.7812 276.4531)" class="st2 st3 st4">●</text>
<text transform="matrix(1 0 0 1 456.7812 276.4531)" class="st5 st3 st4">●</text>
<text transform="matrix(1 0 0 1 456.7812 264.7705)" class="st2 st3 st4">●</text>
<text transform="matrix(1 0 0 1 456.7812 264.7705)" class="st5 st3 st4">●</text>
<text transform="matrix(1 0 0 1 456.7812 266.3877)" class="st2 st3 st4">●</text>
<text transform="matrix(1 0 0 1 456.7812 266.3877)" class="st5 st3 st4">●</text>
<text transform="matrix(1 0 0 1 456.7812 257.2197)" class="st2 st3 st4">●</text>
<text transform="matrix(1 0 0 1 456.7812 257.2197)" class="st5 st3 st4">●</text>
<text transform="matrix(1 0 0 1 456.7812 269.3018)" class="st2 st3 st4">●</text>
<text transform="matrix(1 0 0 1 456.7812 269.3018)" class="st5 st3 st4">●</text>
<text transform="matrix(1 0 0 1 456.7812 276.4531)" class="st2 st3 st4">●</text>
<text transform="matrix(1 0 0 1 456.7812 276.4531)" class="st5 st3 st4">●</text>
<text transform="matrix(1 0 0 1 456.7812 276.4531)" class="st2 st3 st4">●</text>
<text transform="matrix(1 0 0 1 456.7812 276.4531)" class="st5 st3 st4">●</text>
<text transform="matrix(1 0 0 1 456.7812 259.4092)" class="st2 st3 st4">●</text>
<text transform="matrix(1 0 0 1 456.7812 259.4092)" class="st5 st3 st4">●</text>
<text transform="matrix(1 0 0 1 456.7812 270.4512)" class="st2 st3 st4">●</text>
<text transform="matrix(1 0 0 1 456.7812 270.4512)" class="st5 st3 st4">●</text>
<text transform="matrix(1 0 0 1 456.7812 270.2842)" class="st2 st3 st4">●</text>
<text transform="matrix(1 0 0 1 456.7812 270.2842)" class="st5 st3 st4">●</text>
<text transform="matrix(1 0 0 1 456.7812 266.8926)" class="st2 st3 st4">●</text>
<text transform="matrix(1 0 0 1 456.7812 266.8926)" class="st5 st3 st4">●</text>
<text transform="matrix(1 0 0 1 456.7812 265.875)" class="st2 st3 st4">●</text>
<text transform="matrix(1 0 0 1 456.7812 265.875)" class="st5 st3 st4">●</text>
<text transform="matrix(1 0 0 1 475.8458 249.2734)" class="st2 st3 st4">●</text>
<text transform="matrix(1 0 0 1 475.8458 249.2734)" class="st5 st3 st4">●</text>
<text transform="matrix(1 0 0 1 475.8458 237.998)" class="st2 st3 st4">●</text>
<text transform="matrix(1 0 0 1 475.8458 237.998)" class="st5 st3 st4">●</text>
<text transform="matrix(1 0 0 1 475.8458 163.1416)" class="st2 st3 st4">●</text>
<text transform="matrix(1 0 0 1 475.8458 163.1416)" class="st5 st3 st4">●</text>
<text transform="matrix(1 0 0 1 475.8458 215.6113)" class="st2 st3 st4">●</text>
<text transform="matrix(1 0 0 1 475.8458 215.6113)" class="st5 st3 st4">●</text>
<text transform="matrix(1 0 0 1 475.8458 218.3779)" class="st2 st3 st4">●</text>
<text transform="matrix(1 0 0 1 475.8458 218.3779)" class="st5 st3 st4">●</text>
<text transform="matrix(1 0 0 1 475.8458 231.9854)" class="st2 st3 st4">●</text>
<text transform="matrix(1 0 0 1 475.8458 231.9854)" class="st5 st3 st4">●</text>
<text transform="matrix(1 0 0 1 475.8458 213.5859)" class="st2 st3 st4">●</text>
<text transform="matrix(1 0 0 1 475.8458 213.5859)" class="st5 st3 st4">●</text>
<text transform="matrix(1 0 0 1 475.8458 243.793)" class="st2 st3 st4">●</text>
<text transform="matrix(1 0 0 1 475.8458 243.793)" class="st5 st3 st4">●</text>
<text transform="matrix(1 0 0 1 475.8458 241.375)" class="st2 st3 st4">●</text>
<text transform="matrix(1 0 0 1 475.8458 241.375)" class="st5 st3 st4">●</text>
<text transform="matrix(1 0 0 1 475.8458 259.123)" class="st2 st3 st4">●</text>
<text transform="matrix(1 0 0 1 475.8458 259.123)" class="st5 st3 st4">●</text>
<text transform="matrix(1 0 0 1 475.8458 215.1514)" class="st2 st3 st4">●</text>
<text transform="matrix(1 0 0 1 475.8458 215.1514)" class="st5 st3 st4">●</text>
<text transform="matrix(1 0 0 1 494.9044 251.4492)" class="st2 st3 st4">●</text>
<text transform="matrix(1 0 0 1 494.9044 251.4492)" class="st5 st3 st4">●</text>
<text transform="matrix(1 0 0 1 494.9044 229.9766)" class="st2 st3 st4">●</text>
<text transform="matrix(1 0 0 1 494.9044 229.9766)" class="st5 st3 st4">●</text>
<text transform="matrix(1 0 0 1 494.9044 232.499)" class="st2 st3 st4">●</text>
<text transform="matrix(1 0 0 1 494.9044 232.499)" class="st5 st3 st4">●</text>
<text transform="matrix(1 0 0 1 494.9044 255.4619)" class="st2 st3 st4">●</text>
<text transform="matrix(1 0 0 1 494.9044 255.4619)" class="st5 st3 st4">●</text>
<text transform="matrix(1 0 0 1 494.9044 265.6318)" class="st2 st3 st4">●</text>
<text transform="matrix(1 0 0 1 494.9044 265.6318)" class="st5 st3 st4">●</text>
<text transform="matrix(1 0 0 1 494.9044 231.8135)" class="st2 st3 st4">●</text>
<text transform="matrix(1 0 0 1 494.9044 231.8135)" class="st5 st3 st4">●</text>
<text transform="matrix(1 0 0 1 494.9044 247.7695)" class="st2 st3 st4">●</text>
<text transform="matrix(1 0 0 1 494.9044 247.7695)" class="st5 st3 st4">●</text>
<text transform="matrix(1 0 0 1 494.9044 209.5059)" class="st2 st3 st4">●</text>
<text transform="matrix(1 0 0 1 494.9044 209.5059)" class="st5 st3 st4">●</text>
<text transform="matrix(1 0 0 1 494.9044 276.4531)" class="st2 st3 st4">●</text>
<text transform="matrix(1 0 0 1 494.9044 276.4531)" class="st5 st3 st4">●</text>
<text transform="matrix(1 0 0 1 494.9044 240.8076)" class="st2 st3 st4">●</text>
<text transform="matrix(1 0 0 1 494.9044 240.8076)" class="st5 st3 st4">●</text>
<text transform="matrix(1 0 0 1 494.9044 248.8838)" class="st2 st3 st4">●</text>
<text transform="matrix(1 0 0 1 494.9044 248.8838)" class="st5 st3 st4">●</text>
<text transform="matrix(1 0 0 1 494.9044 247.7695)" class="st2 st3 st4">●</text>
<text transform="matrix(1 0 0 1 494.9044 247.7695)" class="st5 st3 st4">●</text>
<text transform="matrix(1 0 0 1 494.9044 227.9326)" class="st2 st3 st4">●</text>
<text transform="matrix(1 0 0 1 494.9044 227.9326)" class="st5 st3 st4">●</text>
<text transform="matrix(1 0 0 1 494.9044 251.3174)" class="st2 st3 st4">●</text>
<text transform="matrix(1 0 0 1 494.9044 251.3174)" class="st5 st3 st4">●</text>
<text transform="matrix(1 0 0 1 494.9044 256.7412)" class="st2 st3 st4">●</text>
<text transform="matrix(1 0 0 1 494.9044 256.7412)" class="st5 st3 st4">●</text>
<text transform="matrix(1 0 0 1 513.9708 237.998)" class="st2 st3 st4">●</text>
<text transform="matrix(1 0 0 1 513.9708 237.998)" class="st5 st3 st4">●</text>
<text transform="matrix(1 0 0 1 513.9708 207.9297)" class="st2 st3 st4">●</text>
<text transform="matrix(1 0 0 1 513.9708 207.9297)" class="st5 st3 st4">●</text>
<text transform="matrix(1 0 0 1 513.9708 254.0498)" class="st2 st3 st4">●</text>
<text transform="matrix(1 0 0 1 513.9708 254.0498)" class="st5 st3 st4">●</text>
<text transform="matrix(1 0 0 1 513.9708 268.6143)" class="st2 st3 st4">●</text>
<text transform="matrix(1 0 0 1 513.9708 268.6143)" class="st5 st3 st4">●</text>
<text transform="matrix(1 0 0 1 513.9708 227.8457)" class="st2 st3 st4">●</text>
<text transform="matrix(1 0 0 1 513.9708 227.8457)" class="st5 st3 st4">●</text>
<text transform="matrix(1 0 0 1 513.9708 198.7852)" class="st2 st3 st4">●</text>
<text transform="matrix(1 0 0 1 513.9708 198.7852)" class="st5 st3 st4">●</text>
<text transform="matrix(1 0 0 1 513.9708 250.5371)" class="st2 st3 st4">●</text>
<text transform="matrix(1 0 0 1 513.9708 250.5371)" class="st5 st3 st4">●</text>
<text transform="matrix(1 0 0 1 513.9708 235.3535)" class="st2 st3 st4">●</text>
<text transform="matrix(1 0 0 1 513.9708 235.3535)" class="st5 st3 st4">●</text>
<text transform="matrix(1 0 0 1 513.9708 254.8252)" class="st2 st3 st4">●</text>
<text transform="matrix(1 0 0 1 513.9708 254.8252)" class="st5 st3 st4">●</text>
<text transform="matrix(1 0 0 1 513.9708 255.9736)" class="st2 st3 st4">●</text>
<text transform="matrix(1 0 0 1 513.9708 255.9736)" class="st5 st3 st4">●</text>
<text transform="matrix(1 0 0 1 513.9708 249.7256)" class="st2 st3 st4">●</text>
<text transform="matrix(1 0 0 1 513.9708 249.7256)" class="st5 st3 st4">●</text>
<text transform="matrix(1 0 0 1 513.9708 178.8877)" class="st2 st3 st4">●</text>
<text transform="matrix(1 0 0 1 513.9708 178.8877)" class="st5 st3 st4">●</text>
<text transform="matrix(1 0 0 1 513.9708 252.0664)" class="st2 st3 st4">●</text>
<text transform="matrix(1 0 0 1 513.9708 252.0664)" class="st5 st3 st4">●</text>
<text transform="matrix(1 0 0 1 552.0862 268.9443)" class="st2 st3 st4">●</text>
<text transform="matrix(1 0 0 1 552.0862 268.9443)" class="st5 st3 st4">●</text>
<text transform="matrix(1 0 0 1 552.0862 271.9365)" class="st2 st3 st4">●</text>
<text transform="matrix(1 0 0 1 552.0862 271.9365)" class="st5 st3 st4">●</text>
<text transform="matrix(1 0 0 1 552.0862 229.5938)" class="st2 st3 st4">●</text>
<text transform="matrix(1 0 0 1 552.0862 229.5938)" class="st5 st3 st4">●</text>
<text transform="matrix(1 0 0 1 552.0862 269.6602)" class="st2 st3 st4">●</text>
<text transform="matrix(1 0 0 1 552.0862 269.6602)" class="st5 st3 st4">●</text>
<text transform="matrix(1 0 0 1 552.0862 258.2432)" class="st2 st3 st4">●</text>
<text transform="matrix(1 0 0 1 552.0862 258.2432)" class="st5 st3 st4">●</text>
<text transform="matrix(1 0 0 1 571.1505 260.6455)" class="st2 st3 st4">●</text>
<text transform="matrix(1 0 0 1 571.1505 260.6455)" class="st5 st3 st4">●</text>
<text transform="matrix(1 0 0 1 571.1505 270.8174)" class="st2 st3 st4">●</text>
<text transform="matrix(1 0 0 1 571.1505 270.8174)" class="st5 st3 st4">●</text>
<text transform="matrix(1 0 0 1 571.1505 272.1211)" class="st2 st3 st4">●</text>
<text transform="matrix(1 0 0 1 571.1505 272.1211)" class="st5 st3 st4">●</text>
<text transform="matrix(1 0 0 1 571.1505 229.3945)" class="st2 st3 st4">●</text>
<text transform="matrix(1 0 0 1 571.1505 229.3945)" class="st5 st3 st4">●</text>
<text transform="matrix(1 0 0 1 571.1505 240.8076)" class="st2 st3 st4">●</text>
<text transform="matrix(1 0 0 1 571.1505 240.8076)" class="st5 st3 st4">●</text>
<text transform="matrix(1 0 0 1 533.0237 230.7344)" class="st2 st3 st4">●</text>
<text transform="matrix(1 0 0 1 533.0237 230.7344)" class="st5 st3 st4">●</text>
<text transform="matrix(1 0 0 1 533.0237 248.1689)" class="st2 st3 st4">●</text>
<text transform="matrix(1 0 0 1 533.0237 248.1689)" class="st5 st3 st4">●</text>
<text transform="matrix(1 0 0 1 533.0237 276.4531)" class="st2 st3 st4">●</text>
<text transform="matrix(1 0 0 1 533.0237 276.4531)" class="st5 st3 st4">●</text>
<text transform="matrix(1 0 0 1 533.0237 206.3467)" class="st2 st3 st4">●</text>
<text transform="matrix(1 0 0 1 533.0237 206.3467)" class="st5 st3 st4">●</text>
<text transform="matrix(1 0 0 1 533.0237 248.0898)" class="st2 st3 st4">●</text>
<text transform="matrix(1 0 0 1 533.0237 248.0898)" class="st5 st3 st4">●</text>
<text transform="matrix(1 0 0 1 533.0237 267.5801)" class="st2 st3 st4">●</text>
<text transform="matrix(1 0 0 1 533.0237 267.5801)" class="st5 st3 st4">●</text>
<text transform="matrix(1 0 0 1 533.0237 249.876)" class="st2 st3 st4">●</text>
<text transform="matrix(1 0 0 1 533.0237 249.876)" class="st5 st3 st4">●</text>
<text transform="matrix(1 0 0 1 609.2638 238.5215)" class="st2 st3 st4">●</text>
<text transform="matrix(1 0 0 1 609.2638 238.5215)" class="st5 st3 st4">●</text>
<text transform="matrix(1 0 0 1 609.2638 241.8193)" class="st2 st3 st4">●</text>
<text transform="matrix(1 0 0 1 609.2638 241.8193)" class="st5 st3 st4">●</text>
<text transform="matrix(1 0 0 1 609.2638 213.8721)" class="st2 st3 st4">●</text>
<text transform="matrix(1 0 0 1 609.2638 213.8721)" class="st5 st3 st4">●</text>
<text transform="matrix(1 0 0 1 609.2638 186.1172)" class="st2 st3 st4">●</text>
<text transform="matrix(1 0 0 1 609.2638 186.1172)" class="st5 st3 st4">●</text>
<text transform="matrix(1 0 0 1 609.2638 201.9092)" class="st2 st3 st4">●</text>
<text transform="matrix(1 0 0 1 609.2638 201.9092)" class="st5 st3 st4">●</text>
<text transform="matrix(1 0 0 1 609.2638 259.4092)" class="st2 st3 st4">●</text>
<text transform="matrix(1 0 0 1 609.2638 259.4092)" class="st5 st3 st4">●</text>
<text transform="matrix(1 0 0 1 609.2638 247.4287)" class="st2 st3 st4">●</text>
<text transform="matrix(1 0 0 1 609.2638 247.4287)" class="st5 st3 st4">●</text>
<text transform="matrix(1 0 0 1 609.2638 265.415)" class="st2 st3 st4">●</text>
<text transform="matrix(1 0 0 1 609.2638 265.415)" class="st5 st3 st4">●</text>
<text transform="matrix(1 0 0 1 609.2638 263.0908)" class="st2 st3 st4">●</text>
<text transform="matrix(1 0 0 1 609.2638 263.0908)" class="st5 st3 st4">●</text>
<text transform="matrix(1 0 0 1 609.2638 258.4893)" class="st2 st3 st4">●</text>
<text transform="matrix(1 0 0 1 609.2638 258.4893)" class="st5 st3 st4">●</text>
<text transform="matrix(1 0 0 1 609.2638 191.2686)" class="st2 st3 st4">●</text>
<text transform="matrix(1 0 0 1 609.2638 191.2686)" class="st5 st3 st4">●</text>
<text transform="matrix(1 0 0 1 609.2638 230.917)" class="st2 st3 st4">●</text>
<text transform="matrix(1 0 0 1 609.2638 230.917)" class="st5 st3 st4">●</text>
<text transform="matrix(1 0 0 1 628.3263 235.207)" class="st2 st3 st4">●</text>
<text transform="matrix(1 0 0 1 628.3263 235.207)" class="st5 st3 st4">●</text>
<text transform="matrix(1 0 0 1 628.3263 240.8076)" class="st2 st3 st4">●</text>
<text transform="matrix(1 0 0 1 628.3263 240.8076)" class="st5 st3 st4">●</text>
<text transform="matrix(1 0 0 1 628.3263 216.8652)" class="st2 st3 st4">●</text>
<text transform="matrix(1 0 0 1 628.3263 216.8652)" class="st5 st3 st4">●</text>
<text transform="matrix(1 0 0 1 628.3263 239.2695)" class="st2 st3 st4">●</text>
<text transform="matrix(1 0 0 1 628.3263 239.2695)" class="st5 st3 st4">●</text>
<text transform="matrix(1 0 0 1 628.3263 255.5215)" class="st2 st3 st4">●</text>
<text transform="matrix(1 0 0 1 628.3263 255.5215)" class="st5 st3 st4">●</text>
<text transform="matrix(1 0 0 1 628.3263 206.3467)" class="st2 st3 st4">●</text>
<text transform="matrix(1 0 0 1 628.3263 206.3467)" class="st5 st3 st4">●</text>
<text transform="matrix(1 0 0 1 628.3263 262.4023)" class="st2 st3 st4">●</text>
<text transform="matrix(1 0 0 1 628.3263 262.4023)" class="st5 st3 st4">●</text>
<text transform="matrix(1 0 0 1 628.3263 216.8652)" class="st2 st3 st4">●</text>
<text transform="matrix(1 0 0 1 628.3263 216.8652)" class="st5 st3 st4">●</text>
<text transform="matrix(1 0 0 1 628.3263 200.5625)" class="st2 st3 st4">●</text>
<text transform="matrix(1 0 0 1 628.3263 200.5625)" class="st5 st3 st4">●</text>
<text transform="matrix(1 0 0 1 628.3263 264.6201)" class="st2 st3 st4">●</text>
<text transform="matrix(1 0 0 1 628.3263 264.6201)" class="st5 st3 st4">●</text>
<text transform="matrix(1 0 0 1 590.2112 241.375)" class="st2 st3 st4">●</text>
<text transform="matrix(1 0 0 1 590.2112 241.375)" class="st5 st3 st4">●</text>
<text transform="matrix(1 0 0 1 590.2112 254.5889)" class="st2 st3 st4">●</text>
<text transform="matrix(1 0 0 1 590.2112 254.5889)" class="st5 st3 st4">●</text>
<text transform="matrix(1 0 0 1 590.2112 239.3926)" class="st2 st3 st4">●</text>
<text transform="matrix(1 0 0 1 590.2112 239.3926)" class="st5 st3 st4">●</text>
<text transform="matrix(1 0 0 1 590.2112 260.7324)" class="st2 st3 st4">●</text>
<text transform="matrix(1 0 0 1 590.2112 260.7324)" class="st5 st3 st4">●</text>
<text transform="matrix(1 0 0 1 590.2112 228.8018)" class="st2 st3 st4">●</text>
<text transform="matrix(1 0 0 1 590.2112 228.8018)" class="st5 st3 st4">●</text>
<text transform="matrix(1 0 0 1 590.2112 228.1865)" class="st2 st3 st4">●</text>
<text transform="matrix(1 0 0 1 590.2112 228.1865)" class="st5 st3 st4">●</text>
<text transform="matrix(1 0 0 1 590.2112 257.5303)" class="st2 st3 st4">●</text>
<text transform="matrix(1 0 0 1 590.2112 257.5303)" class="st5 st3 st4">●</text>
<text transform="matrix(1 0 0 1 590.2112 265.4932)" class="st2 st3 st4">●</text>
<text transform="matrix(1 0 0 1 590.2112 265.4932)" class="st5 st3 st4">●</text>
<text transform="matrix(1 0 0 1 590.2112 229.2021)" class="st2 st3 st4">●</text>
<text transform="matrix(1 0 0 1 590.2112 229.2021)" class="st5 st3 st4">●</text>
<text transform="matrix(1 0 0 1 590.2112 253.1123)" class="st2 st3 st4">●</text>
<text transform="matrix(1 0 0 1 590.2112 253.1123)" class="st5 st3 st4">●</text>
<text transform="matrix(1 0 0 1 590.2112 240.2344)" class="st2 st3 st4">●</text>
<text transform="matrix(1 0 0 1 590.2112 240.2344)" class="st5 st3 st4">●</text>
<text transform="matrix(1 0 0 1 590.2112 240.1123)" class="st2 st3 st4">●</text>
<text transform="matrix(1 0 0 1 590.2112 240.1123)" class="st5 st3 st4">●</text>
<text transform="matrix(1 0 0 1 647.3906 257.4785)" class="st2 st3 st4">●</text>
<text transform="matrix(1 0 0 1 647.3906 257.4785)" class="st5 st3 st4">●</text>
<text transform="matrix(1 0 0 1 647.3906 239.9922)" class="st2 st3 st4">●</text>
<text transform="matrix(1 0 0 1 647.3906 239.9922)" class="st5 st3 st4">●</text>
<text transform="matrix(1 0 0 1 647.3906 258.0879)" class="st2 st3 st4">●</text>
<text transform="matrix(1 0 0 1 647.3906 258.0879)" class="st5 st3 st4">●</text>
<text transform="matrix(1 0 0 1 647.3906 255.1201)" class="st2 st3 st4">●</text>
<text transform="matrix(1 0 0 1 647.3906 255.1201)" class="st5 st3 st4">●</text>
<text transform="matrix(1 0 0 1 647.3906 252.7891)" class="st2 st3 st4">●</text>
<text transform="matrix(1 0 0 1 647.3906 252.7891)" class="st5 st3 st4">●</text>
<text transform="matrix(1 0 0 1 647.3906 256.4092)" class="st2 st3 st4">●</text>
<text transform="matrix(1 0 0 1 647.3906 256.4092)" class="st5 st3 st4">●</text>
<text transform="matrix(1 0 0 1 647.3906 251.1797)" class="st2 st3 st4">●</text>
<text transform="matrix(1 0 0 1 647.3906 251.1797)" class="st5 st3 st4">●</text>
<text transform="matrix(1 0 0 1 647.3906 222.0518)" class="st2 st3 st4">●</text>
<text transform="matrix(1 0 0 1 647.3906 222.0518)" class="st5 st3 st4">●</text>
<text transform="matrix(1 0 0 1 647.3906 244.2881)" class="st2 st3 st4">●</text>
<text transform="matrix(1 0 0 1 647.3906 244.2881)" class="st5 st3 st4">●</text>
<text transform="matrix(1 0 0 1 647.3906 235.7979)" class="st2 st3 st4">●</text>
<text transform="matrix(1 0 0 1 647.3906 235.7979)" class="st5 st3 st4">●</text>
<text transform="matrix(1 0 0 1 647.3906 228.1865)" class="st2 st3 st4">●</text>
<text transform="matrix(1 0 0 1 647.3906 228.1865)" class="st5 st3 st4">●</text>
<text transform="matrix(1 0 0 1 647.3906 254.9463)" class="st2 st3 st4">●</text>
<text transform="matrix(1 0 0 1 647.3906 254.9463)" class="st5 st3 st4">●</text>
<text transform="matrix(1 0 0 1 647.3906 241.2617)" class="st2 st3 st4">●</text>
<text transform="matrix(1 0 0 1 647.3906 241.2617)" class="st5 st3 st4">●</text>
<text transform="matrix(1 0 0 1 647.3906 214.3691)" class="st2 st3 st4">●</text>
<text transform="matrix(1 0 0 1 647.3906 214.3691)" class="st5 st3 st4">●</text>
<text transform="matrix(1 0 0 1 647.3906 258.1924)" class="st2 st3 st4">●</text>
<text transform="matrix(1 0 0 1 647.3906 258.1924)" class="st5 st3 st4">●</text>
<text transform="matrix(1 0 0 1 647.3906 259.4092)" class="st2 st3 st4">●</text>
<text transform="matrix(1 0 0 1 647.3906 259.4092)" class="st5 st3 st4">●</text>
<text transform="matrix(1 0 0 1 647.3906 231.9854)" class="st2 st3 st4">●</text>
<text transform="matrix(1 0 0 1 647.3906 231.9854)" class="st5 st3 st4">●</text>
<text transform="matrix(1 0 0 1 666.4513 253.9902)" class="st2 st3 st4">●</text>
<text transform="matrix(1 0 0 1 666.4513 253.9902)" class="st5 st3 st4">●</text>
<text transform="matrix(1 0 0 1 666.4513 253.3623)" class="st2 st3 st4">●</text>
<text transform="matrix(1 0 0 1 666.4513 253.3623)" class="st5 st3 st4">●</text>
<text transform="matrix(1 0 0 1 666.4513 252.1367)" class="st2 st3 st4">●</text>
<text transform="matrix(1 0 0 1 666.4513 252.1367)" class="st5 st3 st4">●</text>
<text transform="matrix(1 0 0 1 666.4513 235.6475)" class="st2 st3 st4">●</text>
<text transform="matrix(1 0 0 1 666.4513 235.6475)" class="st5 st3 st4">●</text>
<text transform="matrix(1 0 0 1 666.4513 257.5303)" class="st2 st3 st4">●</text>
<text transform="matrix(1 0 0 1 666.4513 257.5303)" class="st5 st3 st4">●</text>
<text transform="matrix(1 0 0 1 666.4513 262.7246)" class="st2 st3 st4">●</text>
<text transform="matrix(1 0 0 1 666.4513 262.7246)" class="st5 st3 st4">●</text>
<text transform="matrix(1 0 0 1 666.4513 257.582)" class="st2 st3 st4">●</text>
<text transform="matrix(1 0 0 1 666.4513 257.582)" class="st5 st3 st4">●</text>
<text transform="matrix(1 0 0 1 666.4513 255.9736)" class="st2 st3 st4">●</text>
<text transform="matrix(1 0 0 1 666.4513 255.9736)" class="st5 st3 st4">●</text>
<text transform="matrix(1 0 0 1 666.4513 255.7461)" class="st2 st3 st4">●</text>
<text transform="matrix(1 0 0 1 666.4513 255.7461)" class="st5 st3 st4">●</text>
<text transform="matrix(1 0 0 1 666.4513 240.9219)" class="st2 st3 st4">●</text>
<text transform="matrix(1 0 0 1 666.4513 240.9219)" class="st5 st3 st4">●</text>
<text transform="matrix(1 0 0 1 666.4513 237.0674)" class="st2 st3 st4">●</text>
<text transform="matrix(1 0 0 1 666.4513 237.0674)" class="st5 st3 st4">●</text>
<text transform="matrix(1 0 0 1 666.4513 244.1846)" class="st2 st3 st4">●</text>
<text transform="matrix(1 0 0 1 666.4513 244.1846)" class="st5 st3 st4">●</text>
<text transform="matrix(1 0 0 1 666.4513 254.6504)" class="st2 st3 st4">●</text>
<text transform="matrix(1 0 0 1 666.4513 254.6504)" class="st5 st3 st4">●</text>
<text transform="matrix(1 0 0 1 685.506 259.123)" class="st2 st3 st4">●</text>
<text transform="matrix(1 0 0 1 685.506 259.123)" class="st5 st3 st4">●</text>
<text transform="matrix(1 0 0 1 685.506 229.9766)" class="st2 st3 st4">●</text>
<text transform="matrix(1 0 0 1 685.506 229.9766)" class="st5 st3 st4">●</text>
<text transform="matrix(1 0 0 1 685.506 244.1846)" class="st2 st3 st4">●</text>
<text transform="matrix(1 0 0 1 685.506 244.1846)" class="st5 st3 st4">●</text>
<text transform="matrix(1 0 0 1 685.506 229.9766)" class="st2 st3 st4">●</text>
<text transform="matrix(1 0 0 1 685.506 229.9766)" class="st5 st3 st4">●</text>
<text transform="matrix(1 0 0 1 685.506 243.5928)" class="st2 st3 st4">●</text>
<text transform="matrix(1 0 0 1 685.506 243.5928)" class="st5 st3 st4">●</text>
<text transform="matrix(1 0 0 1 685.506 228.3926)" class="st2 st3 st4">●</text>
<text transform="matrix(1 0 0 1 685.506 228.3926)" class="st5 st3 st4">●</text>
<text transform="matrix(1 0 0 1 685.506 215.1514)" class="st2 st3 st4">●</text>
<text transform="matrix(1 0 0 1 685.506 215.1514)" class="st5 st3 st4">●</text>
<text transform="matrix(1 0 0 1 685.506 221.2598)" class="st2 st3 st4">●</text>
<text transform="matrix(1 0 0 1 685.506 221.2598)" class="st5 st3 st4">●</text>
<text transform="matrix(1 0 0 1 685.506 236.2236)" class="st2 st3 st4">●</text>
<text transform="matrix(1 0 0 1 685.506 236.2236)" class="st5 st3 st4">●</text>
<text transform="matrix(1 0 0 1 685.506 258.1396)" class="st2 st3 st4">●</text>
<text transform="matrix(1 0 0 1 685.506 258.1396)" class="st5 st3 st4">●</text>
<text transform="matrix(1 0 0 1 685.506 257.2686)" class="st2 st3 st4">●</text>
<text transform="matrix(1 0 0 1 685.506 257.2686)" class="st5 st3 st4">●</text>
<text transform="matrix(1 0 0 1 685.506 257.5303)" class="st2 st3 st4">●</text>
<text transform="matrix(1 0 0 1 685.506 257.5303)" class="st5 st3 st4">●</text>
<text transform="matrix(1 0 0 1 704.5703 250.248)" class="st2 st3 st4">●</text>
<text transform="matrix(1 0 0 1 704.5703 250.248)" class="st5 st3 st4">●</text>
<text transform="matrix(1 0 0 1 723.6328 204.0498)" class="st2 st3 st4">●</text>
<text transform="matrix(1 0 0 1 723.6328 204.0498)" class="st5 st3 st4">●</text>
<text transform="matrix(1 0 0 1 723.6328 259.4541)" class="st2 st3 st4">●</text>
<text transform="matrix(1 0 0 1 723.6328 259.4541)" class="st5 st3 st4">●</text>
<text transform="matrix(1 0 0 1 723.6328 255.9736)" class="st2 st3 st4">●</text>
<text transform="matrix(1 0 0 1 723.6328 255.9736)" class="st5 st3 st4">●</text>
<text transform="matrix(1 0 0 1 742.6915 252.3975)" class="st2 st3 st4">●</text>
<text transform="matrix(1 0 0 1 742.6915 252.3975)" class="st5 st3 st4">●</text>
<text transform="matrix(1 0 0 1 761.756 261.0449)" class="st2 st3 st4">●</text>
<text transform="matrix(1 0 0 1 761.756 261.0449)" class="st5 st3 st4">●</text>
<text transform="matrix(1 0 0 1 780.8069 262.4023)" class="st2 st3 st4">●</text>
<text transform="matrix(1 0 0 1 780.8069 262.4023)" class="st5 st3 st4">●</text>
<text transform="matrix(1 0 0 1 780.8069 269.5713)" class="st2 st3 st4">●</text>
<text transform="matrix(1 0 0 1 780.8069 269.5713)" class="st5 st3 st4">●</text>
<text transform="matrix(1 0 0 1 780.8069 268.8848)" class="st2 st3 st4">●</text>
<text transform="matrix(1 0 0 1 780.8069 268.8848)" class="st5 st3 st4">●</text>
<text transform="matrix(1 0 0 1 780.8069 269.3018)" class="st2 st3 st4">●</text>
<text transform="matrix(1 0 0 1 780.8069 269.3018)" class="st5 st3 st4">●</text>
<text transform="matrix(1 0 0 1 818.9358 220.3115)" class="st2 st3 st4">●</text>
<text transform="matrix(1 0 0 1 818.9358 220.3115)" class="st5 st3 st4">●</text>
<text transform="matrix(1 0 0 1 818.9358 247.1875)" class="st2 st3 st4">●</text>
<text transform="matrix(1 0 0 1 818.9358 247.1875)" class="st5 st3 st4">●</text>
<text transform="matrix(1 0 0 1 818.9358 276.4531)" class="st2 st3 st4">●</text>
<text transform="matrix(1 0 0 1 818.9358 276.4531)" class="st5 st3 st4">●</text>
<text transform="matrix(1 0 0 1 818.9358 244.3838)" class="st2 st3 st4">●</text>
<text transform="matrix(1 0 0 1 818.9358 244.3838)" class="st5 st3 st4">●</text>
<text transform="matrix(1 0 0 1 837.9962 260.7852)" class="st2 st3 st4">●</text>
<text transform="matrix(1 0 0 1 837.9962 260.7852)" class="st5 st3 st4">●</text>
<text transform="matrix(1 0 0 1 837.9962 270.3984)" class="st2 st3 st4">●</text>
<text transform="matrix(1 0 0 1 837.9962 270.3984)" class="st5 st3 st4">●</text>
<text transform="matrix(1 0 0 1 837.9962 270.791)" class="st2 st3 st4">●</text>
<text transform="matrix(1 0 0 1 837.9962 270.791)" class="st5 st3 st4">●</text>
<text transform="matrix(1 0 0 1 799.8712 241.6006)" class="st2 st3 st4">●</text>
<text transform="matrix(1 0 0 1 799.8712 241.6006)" class="st5 st3 st4">●</text>
<text transform="matrix(1 0 0 1 799.8712 254.2334)" class="st2 st3 st4">●</text>
<text transform="matrix(1 0 0 1 799.8712 254.2334)" class="st5 st3 st4">●</text>
<text transform="matrix(1 0 0 1 799.8712 257.374)" class="st2 st3 st4">●</text>
<text transform="matrix(1 0 0 1 799.8712 257.374)" class="st5 st3 st4">●</text>
<text transform="matrix(1 0 0 1 799.8712 266.4229)" class="st2 st3 st4">●</text>
<text transform="matrix(1 0 0 1 799.8712 266.4229)" class="st5 st3 st4">●</text>
<text transform="matrix(1 0 0 1 799.8712 276.4531)" class="st2 st3 st4">●</text>
<text transform="matrix(1 0 0 1 799.8712 276.4531)" class="st5 st3 st4">●</text>
<text transform="matrix(1 0 0 1 799.8712 258.2861)" class="st2 st3 st4">●</text>
<text transform="matrix(1 0 0 1 799.8712 258.2861)" class="st5 st3 st4">●</text>
<text transform="matrix(1 0 0 1 799.8712 251.248)" class="st2 st3 st4">●</text>
<text transform="matrix(1 0 0 1 799.8712 251.248)" class="st5 st3 st4">●</text>
<text transform="matrix(1 0 0 1 799.8712 238.7715)" class="st2 st3 st4">●</text>
<text transform="matrix(1 0 0 1 799.8712 238.7715)" class="st5 st3 st4">●</text>
<text transform="matrix(1 0 0 1 876.1155 216.1016)" class="st2 st3 st4">●</text>
<text transform="matrix(1 0 0 1 876.1155 216.1016)" class="st5 st3 st4">●</text>
<text transform="matrix(1 0 0 1 876.1155 276.4531)" class="st2 st3 st4">●</text>
<text transform="matrix(1 0 0 1 876.1155 276.4531)" class="st5 st3 st4">●</text>
<text transform="matrix(1 0 0 1 876.1155 269.3018)" class="st2 st3 st4">●</text>
<text transform="matrix(1 0 0 1 876.1155 269.3018)" class="st5 st3 st4">●</text>
<text transform="matrix(1 0 0 1 876.1155 209.0957)" class="st2 st3 st4">●</text>
<text transform="matrix(1 0 0 1 876.1155 209.0957)" class="st5 st3 st4">●</text>
<text transform="matrix(1 0 0 1 895.1699 259.6455)" class="st2 st3 st4">●</text>
<text transform="matrix(1 0 0 1 895.1699 259.6455)" class="st5 st3 st4">●</text>
<text transform="matrix(1 0 0 1 895.1699 271.1982)" class="st2 st3 st4">●</text>
<text transform="matrix(1 0 0 1 895.1699 271.1982)" class="st5 st3 st4">●</text>
<text transform="matrix(1 0 0 1 895.1699 268.4941)" class="st2 st3 st4">●</text>
<text transform="matrix(1 0 0 1 895.1699 268.4941)" class="st5 st3 st4">●</text>
<text transform="matrix(1 0 0 1 895.1699 269.0938)" class="st2 st3 st4">●</text>
<text transform="matrix(1 0 0 1 895.1699 269.0938)" class="st5 st3 st4">●</text>
<text transform="matrix(1 0 0 1 857.0491 236.5107)" class="st2 st3 st4">●</text>
<text transform="matrix(1 0 0 1 857.0491 236.5107)" class="st5 st3 st4">●</text>
<text transform="matrix(1 0 0 1 857.0491 270.8174)" class="st2 st3 st4">●</text>
<text transform="matrix(1 0 0 1 857.0491 270.8174)" class="st5 st3 st4">●</text>
<text transform="matrix(1 0 0 1 857.0491 270.1221)" class="st2 st3 st4">●</text>
<text transform="matrix(1 0 0 1 857.0491 270.1221)" class="st5 st3 st4">●</text>
<text transform="matrix(1 0 0 1 857.0491 276.4531)" class="st2 st3 st4">●</text>
<text transform="matrix(1 0 0 1 857.0491 276.4531)" class="st5 st3 st4">●</text>
<text transform="matrix(1 0 0 1 857.0491 269.3018)" class="st2 st3 st4">●</text>
<text transform="matrix(1 0 0 1 857.0491 269.3018)" class="st5 st3 st4">●</text>
<text transform="matrix(1 0 0 1 857.0491 257.6787)" class="st2 st3 st4">●</text>
<text transform="matrix(1 0 0 1 857.0491 257.6787)" class="st5 st3 st4">●</text>
<text transform="matrix(1 0 0 1 857.0491 271.9902)" class="st2 st3 st4">●</text>
<text transform="matrix(1 0 0 1 857.0491 271.9902)" class="st5 st3 st4">●</text>
<text transform="matrix(1 0 0 1 914.2384 266.3271)" class="st2 st3 st4">●</text>
<text transform="matrix(1 0 0 1 914.2384 266.3271)" class="st5 st3 st4">●</text>
<text transform="matrix(1 0 0 1 933.291 265.875)" class="st2 st3 st4">●</text>
<text transform="matrix(1 0 0 1 933.291 265.875)" class="st5 st3 st4">●</text>
<text transform="matrix(1 0 0 1 933.291 257.0615)" class="st2 st3 st4">●</text>
<text transform="matrix(1 0 0 1 933.291 257.0615)" class="st5 st3 st4">●</text>
<text transform="matrix(1 0 0 1 933.291 271.0342)" class="st2 st3 st4">●</text>
<text transform="matrix(1 0 0 1 933.291 271.0342)" class="st5 st3 st4">●</text>
<text transform="matrix(1 0 0 1 952.3535 253.3018)" class="st2 st3 st4">●</text>
<text transform="matrix(1 0 0 1 952.3535 253.3018)" class="st5 st3 st4">●</text>
<text transform="matrix(1 0 0 1 971.4142 253.1123)" class="st2 st3 st4">●</text>
<text transform="matrix(1 0 0 1 971.4142 253.1123)" class="st5 st3 st4">●</text>
<text transform="matrix(1 0 0 1 971.4142 252.3975)" class="st2 st3 st4">●</text>
<text transform="matrix(1 0 0 1 971.4142 252.3975)" class="st5 st3 st4">●</text>
<text transform="matrix(1 0 0 1 971.4142 239.9922)" class="st2 st3 st4">●</text>
<text transform="matrix(1 0 0 1 971.4142 239.9922)" class="st5 st3 st4">●</text>
<text transform="matrix(1 0 0 1 971.4142 217.1436)" class="st2 st3 st4">●</text>
<text transform="matrix(1 0 0 1 971.4142 217.1436)" class="st5 st3 st4">●</text>
<text transform="matrix(1 0 0 1 971.4142 265.5957)" class="st2 st3 st4">●</text>
<text transform="matrix(1 0 0 1 971.4142 265.5957)" class="st5 st3 st4">●</text>
<text transform="matrix(1 0 0 1 971.4142 255.1738)" class="st2 st3 st4">●</text>
<text transform="matrix(1 0 0 1 971.4142 255.1738)" class="st5 st3 st4">●</text>
<text transform="matrix(1 0 0 1 971.4142 237.0674)" class="st2 st3 st4">●</text>
<text transform="matrix(1 0 0 1 971.4142 237.0674)" class="st5 st3 st4">●</text>
<text transform="matrix(1 0 0 1 971.4142 253.8682)" class="st2 st3 st4">●</text>
<text transform="matrix(1 0 0 1 971.4142 253.8682)" class="st5 st3 st4">●</text>
<text transform="matrix(1 0 0 1 971.4142 199.2812)" class="st2 st3 st4">●</text>
<text transform="matrix(1 0 0 1 971.4142 199.2812)" class="st5 st3 st4">●</text>
<text transform="matrix(1 0 0 1 971.4142 207.7637)" class="st2 st3 st4">●</text>
<text transform="matrix(1 0 0 1 971.4142 207.7637)" class="st5 st3 st4">●</text>
<text transform="matrix(1 0 0 1 971.4142 205.9297)" class="st2 st3 st4">●</text>
<text transform="matrix(1 0 0 1 971.4142 205.9297)" class="st5 st3 st4">●</text>
<text transform="matrix(1 0 0 1 990.4746 270.085)" class="st2 st3 st4">●</text>
<text transform="matrix(1 0 0 1 990.4746 270.085)" class="st5 st3 st4">●</text>
<text transform="matrix(1 0 0 1 1009.5392 155.9541)" class="st2 st3 st4">●</text>
<text transform="matrix(1 0 0 1 1009.5392 155.9541)" class="st5 st3 st4">●</text>
<text transform="matrix(1 0 0 1 1009.5392 100.0557)" class="st8 st3 st4">●</text>
<text transform="matrix(1 0 0 1 1009.5392 215.7598)" class="st2 st3 st4">●</text>
<text transform="matrix(1 0 0 1 1009.5392 215.7598)" class="st5 st3 st4">●</text>
<text transform="matrix(1 0 0 1 1009.5392 227.8896)" class="st2 st3 st4">●</text>
<text transform="matrix(1 0 0 1 1009.5392 227.8896)" class="st5 st3 st4">●</text>
<text transform="matrix(1 0 0 1 1009.5392 263.0469)" class="st2 st3 st4">●</text>
<text transform="matrix(1 0 0 1 1009.5392 263.0469)" class="st5 st3 st4">●</text>
<text transform="matrix(1 0 0 1 1009.5392 175.5391)" class="st2 st3 st4">●</text>
<text transform="matrix(1 0 0 1 1009.5392 175.5391)" class="st5 st3 st4">●</text>
<text transform="matrix(1 0 0 1 1009.5392 242.8789)" class="st2 st3 st4">●</text>
<text transform="matrix(1 0 0 1 1009.5392 242.8789)" class="st5 st3 st4">●</text>
<text transform="matrix(1 0 0 1 1009.5392 247.7695)" class="st2 st3 st4">●</text>
<text transform="matrix(1 0 0 1 1009.5392 247.7695)" class="st5 st3 st4">●</text>
<text transform="matrix(1 0 0 1 1009.5392 239.5117)" class="st2 st3 st4">●</text>
<text transform="matrix(1 0 0 1 1009.5392 239.5117)" class="st5 st3 st4">●</text>
<text transform="matrix(1 0 0 1 1009.5392 175.459)" class="st2 st3 st4">●</text>
<text transform="matrix(1 0 0 1 1009.5392 175.459)" class="st5 st3 st4">●</text>
<text transform="matrix(1 0 0 1 1028.5919 218.8047)" class="st2 st3 st4">●</text>
<text transform="matrix(1 0 0 1 1028.5919 218.8047)" class="st5 st3 st4">●</text>
<text transform="matrix(1 0 0 1 1028.5919 219.2822)" class="st2 st3 st4">●</text>
<text transform="matrix(1 0 0 1 1028.5919 219.2822)" class="st5 st3 st4">●</text>
<text transform="matrix(1 0 0 1 1047.6564 239.0254)" class="st2 st3 st4">●</text>
<text transform="matrix(1 0 0 1 1047.6564 239.0254)" class="st5 st3 st4">●</text>
<text transform="matrix(1 0 0 1 1066.7169 243.6963)" class="st2 st3 st4">●</text>
<text transform="matrix(1 0 0 1 1066.7169 243.6963)" class="st5 st3 st4">●</text>
<text transform="matrix(1 0 0 1 1066.7169 242.9834)" class="st2 st3 st4">●</text>
<text transform="matrix(1 0 0 1 1066.7169 242.9834)" class="st5 st3 st4">●</text>
<text transform="matrix(1 0 0 1 1262.0125 302.7867)" class="st2 st3 st4">●</text>
<text transform="matrix(1 0 0 1 1262.0125 302.7867)" class="st5 st3 st4">●</text>
<text transform="matrix(1 0 0 1 1262.0125 327.2944)" class="st2 st3 st4">●</text>
<text transform="matrix(1 0 0 1 1262.0125 327.2944)" class="st5 st3 st4">●</text>
<text transform="matrix(1 0 0 1 1281.071 309.5142)" class="st2 st3 st4">●</text>
<text transform="matrix(1 0 0 1 1281.071 309.5142)" class="st5 st3 st4">●</text>
<text transform="matrix(1 0 0 1 1281.071 311.0073)" class="st2 st3 st4">●</text>
<text transform="matrix(1 0 0 1 1281.071 311.0073)" class="st5 st3 st4">●</text>
<text transform="matrix(1 0 0 1 1195.3052 262.0557)" class="st2 st3 st4">●</text>
<text transform="matrix(1 0 0 1 1195.3052 262.0557)" class="st5 st3 st4">●</text>
<text transform="matrix(1 0 0 1 1195.3052 244.9521)" class="st2 st3 st4">●</text>
<text transform="matrix(1 0 0 1 1195.3052 244.9521)" class="st5 st3 st4">●</text>
<text transform="matrix(1 0 0 1 1214.3677 234.2246)" class="st2 st3 st4">●</text>
<text transform="matrix(1 0 0 1 1214.3677 234.2246)" class="st5 st3 st4">●</text>
<text transform="matrix(1 0 0 1 1214.3677 236.8281)" class="st2 st3 st4">●</text>
<text transform="matrix(1 0 0 1 1214.3677 236.8281)" class="st5 st3 st4">●</text>
<text transform="matrix(1 0 0 1 1233.4282 262.3516)" class="st2 st3 st4">●</text>
<text transform="matrix(1 0 0 1 1233.4282 262.3516)" class="st5 st3 st4">●</text>
<text transform="matrix(1 0 0 1 1233.4282 245.6045)" class="st2 st3 st4">●</text>
<text transform="matrix(1 0 0 1 1233.4282 245.6045)" class="st5 st3 st4">●</text>
<text transform="matrix(1 0 0 1 1252.4868 238.2432)" class="st2 st3 st4">●</text>
<text transform="matrix(1 0 0 1 1252.4868 238.2432)" class="st5 st3 st4">●</text>
<text transform="matrix(1 0 0 1 1252.4868 231.2588)" class="st2 st3 st4">●</text>
<text transform="matrix(1 0 0 1 1252.4868 231.2588)" class="st5 st3 st4">●</text>
<text transform="matrix(1 0 0 1 1252.4868 243.9277)" class="st2 st3 st4">●</text>
<text transform="matrix(1 0 0 1 1252.4868 243.9277)" class="st5 st3 st4">●</text>
<text transform="matrix(1 0 0 1 1252.4868 245.3613)" class="st2 st3 st4">●</text>
<text transform="matrix(1 0 0 1 1252.4868 245.3613)" class="st5 st3 st4">●</text>
<text transform="matrix(1 0 0 1 1309.6704 240.7246)" class="st2 st3 st4">●</text>
<text transform="matrix(1 0 0 1 1309.6704 240.7246)" class="st5 st3 st4">●</text>
<text transform="matrix(1 0 0 1 1328.7329 225.6221)" class="st2 st3 st4">●</text>
<text transform="matrix(1 0 0 1 1328.7329 225.6221)" class="st5 st3 st4">●</text>
<text transform="matrix(1 0 0 1 1290.606 261.1514)" class="st2 st3 st4">●</text>
<text transform="matrix(1 0 0 1 1290.606 261.1514)" class="st5 st3 st4">●</text>
<text transform="matrix(1 0 0 1 1271.5415 217.624)" class="st2 st3 st4">●</text>
<text transform="matrix(1 0 0 1 1271.5415 217.624)" class="st5 st3 st4">●</text>
<text transform="matrix(1 0 0 1 1347.7876 240.6279)" class="st2 st3 st4">●</text>
<text transform="matrix(1 0 0 1 1347.7876 240.6279)" class="st5 st3 st4">●</text>
<text transform="matrix(1 0 0 1 1347.7876 240.7246)" class="st2 st3 st4">●</text>
<text transform="matrix(1 0 0 1 1347.7876 240.7246)" class="st5 st3 st4">●</text>
<text transform="matrix(1 0 0 1 1347.7876 222.0361)" class="st2 st3 st4">●</text>
<text transform="matrix(1 0 0 1 1347.7876 222.0361)" class="st5 st3 st4">●</text>
<text transform="matrix(1 0 0 1 1347.7876 241.6201)" class="st2 st3 st4">●</text>
<text transform="matrix(1 0 0 1 1347.7876 241.6201)" class="st5 st3 st4">●</text>
<text transform="matrix(1 0 0 1 1366.8462 251.6689)" class="st2 st3 st4">●</text>
<text transform="matrix(1 0 0 1 1366.8462 251.6689)" class="st5 st3 st4">●</text>
<text transform="matrix(1 0 0 1 1366.8462 265.5547)" class="st2 st3 st4">●</text>
<text transform="matrix(1 0 0 1 1366.8462 265.5547)" class="st5 st3 st4">●</text>
<text transform="matrix(1 0 0 1 1366.8462 266.0146)" class="st2 st3 st4">●</text>
<text transform="matrix(1 0 0 1 1366.8462 266.0146)" class="st5 st3 st4">●</text>
<text transform="matrix(1 0 0 1 1366.8462 250.0938)" class="st2 st3 st4">●</text>
<text transform="matrix(1 0 0 1 1366.8462 250.0938)" class="st5 st3 st4">●</text>
<text transform="matrix(1 0 0 1 1385.9087 244.9521)" class="st2 st3 st4">●</text>
<text transform="matrix(1 0 0 1 1385.9087 244.9521)" class="st5 st3 st4">●</text>
<text transform="matrix(1 0 0 1 1385.9087 230.1104)" class="st2 st3 st4">●</text>
<text transform="matrix(1 0 0 1 1385.9087 230.1104)" class="st5 st3 st4">●</text>
<text transform="matrix(1 0 0 1 151.8199 258.2432)" class="st9 st3 st4">●</text>
<text transform="matrix(1 0 0 1 151.8199 257)" class="st9 st3 st4">●</text>
<text transform="matrix(1 0 0 1 151.8199 258.2861)" class="st9 st3 st4">●</text>
<text transform="matrix(1 0 0 1 151.8199 217.2471)" class="st9 st3 st4">●</text>
<text transform="matrix(1 0 0 1 208.9985 181.3057)" class="st9 st3 st4">●</text>
<text transform="matrix(1 0 0 1 208.9985 263.6729)" class="st9 st3 st4">●</text>
<text transform="matrix(1 0 0 1 189.9332 264.543)" class="st9 st3 st4">●</text>
<text transform="matrix(1 0 0 1 189.9332 260.6455)" class="st9 st3 st4">●</text>
<text transform="matrix(1 0 0 1 189.9332 243.4971)" class="st9 st3 st4">●</text>
<text transform="matrix(1 0 0 1 189.9332 276.4531)" class="st9 st3 st4">●</text>
<text transform="matrix(1 0 0 1 285.2389 243.2891)" class="st9 st3 st4">●</text>
<text transform="matrix(1 0 0 1 266.1842 276.4531)" class="st9 st3 st4">●</text>
<text transform="matrix(1 0 0 1 266.1842 276.4531)" class="st9 st3 st4">●</text>
<text transform="matrix(1 0 0 1 266.1842 276.4531)" class="st9 st3 st4">●</text>
<text transform="matrix(1 0 0 1 266.1842 276.4531)" class="st9 st3 st4">●</text>
<text transform="matrix(1 0 0 1 94.6412 260.0625)" class="st9 st3 st4">●</text>
<text transform="matrix(1 0 0 1 94.6412 260.2881)" class="st9 st3 st4">●</text>
<text transform="matrix(1 0 0 1 113.6959 206.46)" class="st9 st3 st4">●</text>
<text transform="matrix(1 0 0 1 113.6959 234.1348)" class="st9 st3 st4">●</text>
<text transform="matrix(1 0 0 1 113.6959 239.8789)" class="st9 st3 st4">●</text>
<text transform="matrix(1 0 0 1 132.7584 199.8477)" class="st9 st3 st4">●</text>
<text transform="matrix(1 0 0 1 170.8813 236.6494)" class="st9 st3 st4">●</text>
<text transform="matrix(1 0 0 1 170.8813 260.7324)" class="st9 st3 st4">●</text>
<text transform="matrix(1 0 0 1 170.8813 229.7861)" class="st9 st3 st4">●</text>
<text transform="matrix(1 0 0 1 170.8813 206.1641)" class="st9 st3 st4">●</text>
<text transform="matrix(1 0 0 1 170.8813 239.3926)" class="st9 st3 st4">●</text>
<text transform="matrix(1 0 0 1 170.8813 130.2363)" class="st9 st3 st4">●</text>
<text transform="matrix(1 0 0 1 170.8813 262.2344)" class="st9 st3 st4">●</text>
<text transform="matrix(1 0 0 1 170.8813 238.7715)" class="st9 st3 st4">●</text>
<text transform="matrix(1 0 0 1 170.8813 260.6914)" class="st9 st3 st4">●</text>
<text transform="matrix(1 0 0 1 170.8813 240.2344)" class="st9 st3 st4">●</text>
<text transform="matrix(1 0 0 1 170.8813 175.8955)" class="st9 st3 st4">●</text>
<text transform="matrix(1 0 0 1 170.8813 261.4814)" class="st9 st3 st4">●</text>
<text transform="matrix(1 0 0 1 170.8813 214.1602)" class="st9 st3 st4">●</text>
<text transform="matrix(1 0 0 1 247.1246 248.4922)" class="st9 st3 st4">●</text>
<text transform="matrix(1 0 0 1 228.061 254.7646)" class="st9 st3 st4">●</text>
<text transform="matrix(1 0 0 1 228.061 263.3242)" class="st9 st3 st4">●</text>
<text transform="matrix(1 0 0 1 304.3014 265.7344)" class="st9 st3 st4">●</text>
<text transform="matrix(1 0 0 1 304.3014 245.0449)" class="st9 st3 st4">●</text>
<text transform="matrix(1 0 0 1 323.3619 232.499)" class="st9 st3 st4">●</text>
<text transform="matrix(1 0 0 1 323.3619 259.0254)" class="st9 st3 st4">●</text>
<text transform="matrix(1 0 0 1 342.4244 212.2539)" class="st9 st3 st4">●</text>
<text transform="matrix(1 0 0 1 342.4244 245.4199)" class="st9 st3 st4">●</text>
<text transform="matrix(1 0 0 1 361.4806 265.1699)" class="st9 st3 st4">●</text>
<text transform="matrix(1 0 0 1 361.4806 194.8096)" class="st9 st3 st4">●</text>
<text transform="matrix(1 0 0 1 380.5411 247.4287)" class="st9 st3 st4">●</text>
<text transform="matrix(1 0 0 1 380.5411 267.8672)" class="st9 st3 st4">●</text>
<text transform="matrix(1 0 0 1 399.6036 239.9922)" class="st9 st3 st4">●</text>
<text transform="matrix(1 0 0 1 399.6036 224.6699)" class="st9 st3 st4">●</text>
<text transform="matrix(1 0 0 1 418.6681 276.4531)" class="st9 st3 st4">●</text>
<text transform="matrix(1 0 0 1 418.6681 265.0898)" class="st9 st3 st4">●</text>
<text transform="matrix(1 0 0 1 437.7208 253.9902)" class="st9 st3 st4">●</text>
<text transform="matrix(1 0 0 1 437.7208 246.2305)" class="st9 st3 st4">●</text>
<text transform="matrix(1 0 0 1 437.7208 254.4053)" class="st9 st3 st4">●</text>
<text transform="matrix(1 0 0 1 456.7812 276.4531)" class="st9 st3 st4">●</text>
<text transform="matrix(1 0 0 1 456.7812 264.7705)" class="st9 st3 st4">●</text>
<text transform="matrix(1 0 0 1 456.7812 266.3877)" class="st9 st3 st4">●</text>
<text transform="matrix(1 0 0 1 456.7812 257.2197)" class="st9 st3 st4">●</text>
<text transform="matrix(1 0 0 1 456.7812 269.3018)" class="st9 st3 st4">●</text>
<text transform="matrix(1 0 0 1 456.7812 276.4531)" class="st9 st3 st4">●</text>
<text transform="matrix(1 0 0 1 456.7812 276.4531)" class="st9 st3 st4">●</text>
<text transform="matrix(1 0 0 1 456.7812 259.4092)" class="st9 st3 st4">●</text>
<text transform="matrix(1 0 0 1 456.7812 270.4512)" class="st9 st3 st4">●</text>
<text transform="matrix(1 0 0 1 456.7812 270.2842)" class="st9 st3 st4">●</text>
<text transform="matrix(1 0 0 1 456.7812 266.8926)" class="st9 st3 st4">●</text>
<text transform="matrix(1 0 0 1 456.7812 265.875)" class="st9 st3 st4">●</text>
<text transform="matrix(1 0 0 1 475.8458 249.2734)" class="st9 st3 st4">●</text>
<text transform="matrix(1 0 0 1 475.8458 237.998)" class="st9 st3 st4">●</text>
<text transform="matrix(1 0 0 1 475.8458 163.1416)" class="st9 st3 st4">●</text>
<text transform="matrix(1 0 0 1 475.8458 215.6113)" class="st9 st3 st4">●</text>
<text transform="matrix(1 0 0 1 475.8458 218.3779)" class="st9 st3 st4">●</text>
<text transform="matrix(1 0 0 1 475.8458 231.9854)" class="st9 st3 st4">●</text>
<text transform="matrix(1 0 0 1 475.8458 213.5859)" class="st9 st3 st4">●</text>
<text transform="matrix(1 0 0 1 475.8458 243.793)" class="st9 st3 st4">●</text>
<text transform="matrix(1 0 0 1 475.8458 241.375)" class="st9 st3 st4">●</text>
<text transform="matrix(1 0 0 1 475.8458 259.123)" class="st9 st3 st4">●</text>
<text transform="matrix(1 0 0 1 475.8458 215.1514)" class="st9 st3 st4">●</text>
<text transform="matrix(1 0 0 1 494.9044 251.4492)" class="st9 st3 st4">●</text>
<text transform="matrix(1 0 0 1 494.9044 229.9766)" class="st9 st3 st4">●</text>
<text transform="matrix(1 0 0 1 494.9044 232.499)" class="st9 st3 st4">●</text>
<text transform="matrix(1 0 0 1 494.9044 255.4619)" class="st9 st3 st4">●</text>
<text transform="matrix(1 0 0 1 494.9044 265.6318)" class="st9 st3 st4">●</text>
<text transform="matrix(1 0 0 1 494.9044 231.8135)" class="st9 st3 st4">●</text>
<text transform="matrix(1 0 0 1 494.9044 247.7695)" class="st9 st3 st4">●</text>
<text transform="matrix(1 0 0 1 494.9044 209.5059)" class="st9 st3 st4">●</text>
<text transform="matrix(1 0 0 1 494.9044 276.4531)" class="st9 st3 st4">●</text>
<text transform="matrix(1 0 0 1 494.9044 240.8076)" class="st9 st3 st4">●</text>
<text transform="matrix(1 0 0 1 494.9044 248.8838)" class="st9 st3 st4">●</text>
<text transform="matrix(1 0 0 1 494.9044 247.7695)" class="st9 st3 st4">●</text>
<text transform="matrix(1 0 0 1 494.9044 227.9326)" class="st9 st3 st4">●</text>
<text transform="matrix(1 0 0 1 494.9044 251.3174)" class="st9 st3 st4">●</text>
<text transform="matrix(1 0 0 1 494.9044 256.7412)" class="st9 st3 st4">●</text>
<text transform="matrix(1 0 0 1 513.9708 237.998)" class="st9 st3 st4">●</text>
<text transform="matrix(1 0 0 1 513.9708 207.9297)" class="st9 st3 st4">●</text>
<text transform="matrix(1 0 0 1 513.9708 254.0498)" class="st9 st3 st4">●</text>
<text transform="matrix(1 0 0 1 513.9708 268.6143)" class="st9 st3 st4">●</text>
<text transform="matrix(1 0 0 1 513.9708 227.8457)" class="st9 st3 st4">●</text>
<text transform="matrix(1 0 0 1 513.9708 198.7852)" class="st9 st3 st4">●</text>
<text transform="matrix(1 0 0 1 513.9708 250.5371)" class="st9 st3 st4">●</text>
<text transform="matrix(1 0 0 1 513.9708 235.3535)" class="st9 st3 st4">●</text>
<text transform="matrix(1 0 0 1 513.9708 254.8252)" class="st9 st3 st4">●</text>
<text transform="matrix(1 0 0 1 513.9708 255.9736)" class="st9 st3 st4">●</text>
<text transform="matrix(1 0 0 1 513.9708 249.7256)" class="st9 st3 st4">●</text>
<text transform="matrix(1 0 0 1 513.9708 178.8877)" class="st9 st3 st4">●</text>
<text transform="matrix(1 0 0 1 513.9708 252.0664)" class="st9 st3 st4">●</text>
<text transform="matrix(1 0 0 1 552.0862 268.9443)" class="st9 st3 st4">●</text>
<text transform="matrix(1 0 0 1 552.0862 271.9365)" class="st9 st3 st4">●</text>
<text transform="matrix(1 0 0 1 552.0862 229.5938)" class="st9 st3 st4">●</text>
<text transform="matrix(1 0 0 1 552.0862 269.6602)" class="st9 st3 st4">●</text>
<text transform="matrix(1 0 0 1 552.0862 258.2432)" class="st9 st3 st4">●</text>
<text transform="matrix(1 0 0 1 571.1505 260.6455)" class="st9 st3 st4">●</text>
<text transform="matrix(1 0 0 1 571.1505 270.8174)" class="st9 st3 st4">●</text>
<text transform="matrix(1 0 0 1 571.1505 272.1211)" class="st9 st3 st4">●</text>
<text transform="matrix(1 0 0 1 571.1505 229.3945)" class="st9 st3 st4">●</text>
<text transform="matrix(1 0 0 1 571.1505 240.8076)" class="st9 st3 st4">●</text>
<text transform="matrix(1 0 0 1 533.0237 230.7344)" class="st9 st3 st4">●</text>
<text transform="matrix(1 0 0 1 533.0237 248.1689)" class="st9 st3 st4">●</text>
<text transform="matrix(1 0 0 1 533.0237 276.4531)" class="st9 st3 st4">●</text>
<text transform="matrix(1 0 0 1 533.0237 206.3467)" class="st9 st3 st4">●</text>
<text transform="matrix(1 0 0 1 533.0237 248.0898)" class="st9 st3 st4">●</text>
<text transform="matrix(1 0 0 1 533.0237 267.5801)" class="st9 st3 st4">●</text>
<text transform="matrix(1 0 0 1 533.0237 249.876)" class="st9 st3 st4">●</text>
<text transform="matrix(1 0 0 1 609.2638 238.5215)" class="st9 st3 st4">●</text>
<text transform="matrix(1 0 0 1 609.2638 241.8193)" class="st9 st3 st4">●</text>
<text transform="matrix(1 0 0 1 609.2638 213.8721)" class="st9 st3 st4">●</text>
<text transform="matrix(1 0 0 1 609.2638 186.1172)" class="st9 st3 st4">●</text>
<text transform="matrix(1 0 0 1 609.2638 201.9092)" class="st9 st3 st4">●</text>
<text transform="matrix(1 0 0 1 609.2638 259.4092)" class="st9 st3 st4">●</text>
<text transform="matrix(1 0 0 1 609.2638 247.4287)" class="st9 st3 st4">●</text>
<text transform="matrix(1 0 0 1 609.2638 265.415)" class="st9 st3 st4">●</text>
<text transform="matrix(1 0 0 1 609.2638 263.0908)" class="st9 st3 st4">●</text>
<text transform="matrix(1 0 0 1 609.2638 258.4893)" class="st9 st3 st4">●</text>
<text transform="matrix(1 0 0 1 609.2638 191.2686)" class="st9 st3 st4">●</text>
<text transform="matrix(1 0 0 1 609.2638 230.917)" class="st9 st3 st4">●</text>
<text transform="matrix(1 0 0 1 628.3263 235.207)" class="st9 st3 st4">●</text>
<text transform="matrix(1 0 0 1 628.3263 240.8076)" class="st9 st3 st4">●</text>
<text transform="matrix(1 0 0 1 628.3263 216.8652)" class="st9 st3 st4">●</text>
<text transform="matrix(1 0 0 1 628.3263 239.2695)" class="st9 st3 st4">●</text>
<text transform="matrix(1 0 0 1 628.3263 255.5215)" class="st9 st3 st4">●</text>
<text transform="matrix(1 0 0 1 628.3263 206.3467)" class="st9 st3 st4">●</text>
<text transform="matrix(1 0 0 1 628.3263 262.4023)" class="st9 st3 st4">●</text>
<text transform="matrix(1 0 0 1 628.3263 216.8652)" class="st9 st3 st4">●</text>
<text transform="matrix(1 0 0 1 628.3263 200.5625)" class="st9 st3 st4">●</text>
<text transform="matrix(1 0 0 1 628.3263 264.6201)" class="st9 st3 st4">●</text>
<text transform="matrix(1 0 0 1 590.2112 241.375)" class="st9 st3 st4">●</text>
<text transform="matrix(1 0 0 1 590.2112 254.5889)" class="st9 st3 st4">●</text>
<text transform="matrix(1 0 0 1 590.2112 239.3926)" class="st9 st3 st4">●</text>
<text transform="matrix(1 0 0 1 590.2112 260.7324)" class="st9 st3 st4">●</text>
<text transform="matrix(1 0 0 1 590.2112 228.8018)" class="st9 st3 st4">●</text>
<text transform="matrix(1 0 0 1 590.2112 228.1865)" class="st9 st3 st4">●</text>
<text transform="matrix(1 0 0 1 590.2112 257.5303)" class="st9 st3 st4">●</text>
<text transform="matrix(1 0 0 1 590.2112 265.4932)" class="st9 st3 st4">●</text>
<text transform="matrix(1 0 0 1 590.2112 229.2021)" class="st9 st3 st4">●</text>
<text transform="matrix(1 0 0 1 590.2112 253.1123)" class="st9 st3 st4">●</text>
<text transform="matrix(1 0 0 1 590.2112 240.2344)" class="st9 st3 st4">●</text>
<text transform="matrix(1 0 0 1 590.2112 240.1123)" class="st9 st3 st4">●</text>
<text transform="matrix(1 0 0 1 647.3906 257.4785)" class="st9 st3 st4">●</text>
<text transform="matrix(1 0 0 1 647.3906 239.9922)" class="st9 st3 st4">●</text>
<text transform="matrix(1 0 0 1 647.3906 258.0879)" class="st9 st3 st4">●</text>
<text transform="matrix(1 0 0 1 647.3906 255.1201)" class="st9 st3 st4">●</text>
<text transform="matrix(1 0 0 1 647.3906 252.7891)" class="st9 st3 st4">●</text>
<text transform="matrix(1 0 0 1 647.3906 256.4092)" class="st9 st3 st4">●</text>
<text transform="matrix(1 0 0 1 647.3906 251.1797)" class="st9 st3 st4">●</text>
<text transform="matrix(1 0 0 1 647.3906 222.0518)" class="st9 st3 st4">●</text>
<text transform="matrix(1 0 0 1 647.3906 244.2881)" class="st9 st3 st4">●</text>
<text transform="matrix(1 0 0 1 647.3906 235.7979)" class="st9 st3 st4">●</text>
<text transform="matrix(1 0 0 1 647.3906 228.1865)" class="st9 st3 st4">●</text>
<text transform="matrix(1 0 0 1 647.3906 254.9463)" class="st9 st3 st4">●</text>
<text transform="matrix(1 0 0 1 647.3906 241.2617)" class="st9 st3 st4">●</text>
<text transform="matrix(1 0 0 1 647.3906 214.3691)" class="st9 st3 st4">●</text>
<text transform="matrix(1 0 0 1 647.3906 258.1924)" class="st9 st3 st4">●</text>
<text transform="matrix(1 0 0 1 647.3906 259.4092)" class="st9 st3 st4">●</text>
<text transform="matrix(1 0 0 1 647.3906 231.9854)" class="st9 st3 st4">●</text>
<text transform="matrix(1 0 0 1 666.4513 253.9902)" class="st9 st3 st4">●</text>
<text transform="matrix(1 0 0 1 666.4513 253.3623)" class="st9 st3 st4">●</text>
<text transform="matrix(1 0 0 1 666.4513 252.1367)" class="st9 st3 st4">●</text>
<text transform="matrix(1 0 0 1 666.4513 235.6475)" class="st9 st3 st4">●</text>
<text transform="matrix(1 0 0 1 666.4513 257.5303)" class="st9 st3 st4">●</text>
<text transform="matrix(1 0 0 1 666.4513 262.7246)" class="st9 st3 st4">●</text>
<text transform="matrix(1 0 0 1 666.4513 257.582)" class="st9 st3 st4">●</text>
<text transform="matrix(1 0 0 1 666.4513 255.9736)" class="st9 st3 st4">●</text>
<text transform="matrix(1 0 0 1 666.4513 255.7461)" class="st9 st3 st4">●</text>
<text transform="matrix(1 0 0 1 666.4513 240.9219)" class="st9 st3 st4">●</text>
<text transform="matrix(1 0 0 1 666.4513 237.0674)" class="st9 st3 st4">●</text>
<text transform="matrix(1 0 0 1 666.4513 244.1846)" class="st9 st3 st4">●</text>
<text transform="matrix(1 0 0 1 666.4513 254.6504)" class="st9 st3 st4">●</text>
<text transform="matrix(1 0 0 1 685.506 259.123)" class="st9 st3 st4">●</text>
<text transform="matrix(1 0 0 1 685.506 229.9766)" class="st9 st3 st4">●</text>
<text transform="matrix(1 0 0 1 685.506 244.1846)" class="st9 st3 st4">●</text>
<text transform="matrix(1 0 0 1 685.506 229.9766)" class="st9 st3 st4">●</text>
<text transform="matrix(1 0 0 1 685.506 243.5928)" class="st9 st3 st4">●</text>
<text transform="matrix(1 0 0 1 685.506 228.3926)" class="st9 st3 st4">●</text>
<text transform="matrix(1 0 0 1 685.506 215.1514)" class="st9 st3 st4">●</text>
<text transform="matrix(1 0 0 1 685.506 221.2598)" class="st9 st3 st4">●</text>
<text transform="matrix(1 0 0 1 685.506 236.2236)" class="st9 st3 st4">●</text>
<text transform="matrix(1 0 0 1 685.506 258.1396)" class="st9 st3 st4">●</text>
<text transform="matrix(1 0 0 1 685.506 257.2686)" class="st9 st3 st4">●</text>
<text transform="matrix(1 0 0 1 685.506 257.5303)" class="st9 st3 st4">●</text>
<text transform="matrix(1 0 0 1 704.5703 250.248)" class="st9 st3 st4">●</text>
<text transform="matrix(1 0 0 1 723.6328 204.0498)" class="st9 st3 st4">●</text>
<text transform="matrix(1 0 0 1 723.6328 259.4541)" class="st9 st3 st4">●</text>
<text transform="matrix(1 0 0 1 723.6328 255.9736)" class="st9 st3 st4">●</text>
<text transform="matrix(1 0 0 1 742.6915 252.3975)" class="st9 st3 st4">●</text>
<text transform="matrix(1 0 0 1 761.756 261.0449)" class="st9 st3 st4">●</text>
<text transform="matrix(1 0 0 1 780.8069 262.4023)" class="st9 st3 st4">●</text>
<text transform="matrix(1 0 0 1 780.8069 269.5713)" class="st9 st3 st4">●</text>
<text transform="matrix(1 0 0 1 780.8069 268.8848)" class="st9 st3 st4">●</text>
<text transform="matrix(1 0 0 1 780.8069 269.3018)" class="st9 st3 st4">●</text>
<text transform="matrix(1 0 0 1 818.9358 220.3115)" class="st9 st3 st4">●</text>
<text transform="matrix(1 0 0 1 818.9358 247.1875)" class="st9 st3 st4">●</text>
<text transform="matrix(1 0 0 1 818.9358 276.4531)" class="st9 st3 st4">●</text>
<text transform="matrix(1 0 0 1 818.9358 244.3838)" class="st9 st3 st4">●</text>
<text transform="matrix(1 0 0 1 837.9962 260.7852)" class="st9 st3 st4">●</text>
<text transform="matrix(1 0 0 1 837.9962 270.3984)" class="st9 st3 st4">●</text>
<text transform="matrix(1 0 0 1 837.9962 270.791)" class="st9 st3 st4">●</text>
<text transform="matrix(1 0 0 1 799.8712 241.6006)" class="st9 st3 st4">●</text>
<text transform="matrix(1 0 0 1 799.8712 254.2334)" class="st9 st3 st4">●</text>
<text transform="matrix(1 0 0 1 799.8712 257.374)" class="st9 st3 st4">●</text>
<text transform="matrix(1 0 0 1 799.8712 266.4229)" class="st9 st3 st4">●</text>
<text transform="matrix(1 0 0 1 799.8712 276.4531)" class="st9 st3 st4">●</text>
<text transform="matrix(1 0 0 1 799.8712 258.2861)" class="st9 st3 st4">●</text>
<text transform="matrix(1 0 0 1 799.8712 251.248)" class="st9 st3 st4">●</text>
<text transform="matrix(1 0 0 1 799.8712 238.7715)" class="st9 st3 st4">●</text>
<text transform="matrix(1 0 0 1 876.1155 216.1016)" class="st9 st3 st4">●</text>
<text transform="matrix(1 0 0 1 876.1155 276.4531)" class="st9 st3 st4">●</text>
<text transform="matrix(1 0 0 1 876.1155 269.3018)" class="st9 st3 st4">●</text>
<text transform="matrix(1 0 0 1 876.1155 209.0957)" class="st9 st3 st4">●</text>
<text transform="matrix(1 0 0 1 895.1699 259.6455)" class="st9 st3 st4">●</text>
<text transform="matrix(1 0 0 1 895.1699 271.1982)" class="st9 st3 st4">●</text>
<text transform="matrix(1 0 0 1 895.1699 268.4941)" class="st9 st3 st4">●</text>
<text transform="matrix(1 0 0 1 895.1699 269.0938)" class="st9 st3 st4">●</text>
<text transform="matrix(1 0 0 1 857.0491 236.5107)" class="st9 st3 st4">●</text>
<text transform="matrix(1 0 0 1 857.0491 270.8174)" class="st9 st3 st4">●</text>
<text transform="matrix(1 0 0 1 857.0491 270.1221)" class="st9 st3 st4">●</text>
<text transform="matrix(1 0 0 1 857.0491 276.4531)" class="st9 st3 st4">●</text>
<text transform="matrix(1 0 0 1 857.0491 269.3018)" class="st9 st3 st4">●</text>
<text transform="matrix(1 0 0 1 857.0491 257.6787)" class="st9 st3 st4">●</text>
<text transform="matrix(1 0 0 1 857.0491 271.9902)" class="st9 st3 st4">●</text>
<text transform="matrix(1 0 0 1 914.2384 266.3271)" class="st9 st3 st4">●</text>
<text transform="matrix(1 0 0 1 933.291 265.875)" class="st9 st3 st4">●</text>
<text transform="matrix(1 0 0 1 933.291 257.0615)" class="st9 st3 st4">●</text>
<text transform="matrix(1 0 0 1 933.291 271.0342)" class="st9 st3 st4">●</text>
<text transform="matrix(1 0 0 1 952.3535 253.3018)" class="st9 st3 st4">●</text>
<text transform="matrix(1 0 0 1 971.4142 253.1123)" class="st9 st3 st4">●</text>
<text transform="matrix(1 0 0 1 971.4142 252.3975)" class="st9 st3 st4">●</text>
<text transform="matrix(1 0 0 1 971.4142 239.9922)" class="st9 st3 st4">●</text>
<text transform="matrix(1 0 0 1 971.4142 217.1436)" class="st9 st3 st4">●</text>
<text transform="matrix(1 0 0 1 971.4142 265.5957)" class="st9 st3 st4">●</text>
<text transform="matrix(1 0 0 1 971.4142 255.1738)" class="st9 st3 st4">●</text>
<text transform="matrix(1 0 0 1 971.4142 237.0674)" class="st9 st3 st4">●</text>
<text transform="matrix(1 0 0 1 971.4142 253.8682)" class="st9 st3 st4">●</text>
<text transform="matrix(1 0 0 1 971.4142 199.2812)" class="st9 st3 st4">●</text>
<text transform="matrix(1 0 0 1 971.4142 207.7637)" class="st9 st3 st4">●</text>
<text transform="matrix(1 0 0 1 971.4142 205.9297)" class="st9 st3 st4">●</text>
<text transform="matrix(1 0 0 1 990.4746 270.085)" class="st9 st3 st4">●</text>
<text transform="matrix(1 0 0 1 1009.5392 155.9541)" class="st9 st3 st4">●</text>
<text transform="matrix(1 0 0 1 1009.5392 215.7598)" class="st9 st3 st4">●</text>
<text transform="matrix(1 0 0 1 1009.5392 227.8896)" class="st9 st3 st4">●</text>
<text transform="matrix(1 0 0 1 1009.5392 263.0469)" class="st9 st3 st4">●</text>
<text transform="matrix(1 0 0 1 1009.5392 175.5391)" class="st9 st3 st4">●</text>
<text transform="matrix(1 0 0 1 1009.5392 242.8789)" class="st9 st3 st4">●</text>
<text transform="matrix(1 0 0 1 1009.5392 247.7695)" class="st9 st3 st4">●</text>
<text transform="matrix(1 0 0 1 1009.5392 239.5117)" class="st9 st3 st4">●</text>
<text transform="matrix(1 0 0 1 1009.5392 175.459)" class="st9 st3 st4">●</text>
<text transform="matrix(1 0 0 1 1028.5919 218.8047)" class="st9 st3 st4">●</text>
<text transform="matrix(1 0 0 1 1028.5919 219.2822)" class="st9 st3 st4">●</text>
<text transform="matrix(1 0 0 1 1047.6564 239.0254)" class="st9 st3 st4">●</text>
<text transform="matrix(1 0 0 1 1066.7169 243.6963)" class="st9 st3 st4">●</text>
<text transform="matrix(1 0 0 1 1066.7169 242.9834)" class="st9 st3 st4">●</text>
<text transform="matrix(1 0 0 1 1262.0125 302.7867)" class="st9 st3 st4">●</text>
<text transform="matrix(1 0 0 1 1262.0125 327.2944)" class="st9 st3 st4">●</text>
<text transform="matrix(1 0 0 1 1281.071 309.5142)" class="st9 st3 st4">●</text>
<text transform="matrix(1 0 0 1 1281.071 311.0073)" class="st9 st3 st4">●</text>
<text transform="matrix(1 0 0 1 1195.3052 262.0557)" class="st9 st3 st4">●</text>
<text transform="matrix(1 0 0 1 1195.3052 244.9521)" class="st9 st3 st4">●</text>
<text transform="matrix(1 0 0 1 1214.3677 234.2246)" class="st9 st3 st4">●</text>
<text transform="matrix(1 0 0 1 1214.3677 236.8281)" class="st9 st3 st4">●</text>
<text transform="matrix(1 0 0 1 1233.4282 262.3516)" class="st9 st3 st4">●</text>
<text transform="matrix(1 0 0 1 1233.4282 245.6045)" class="st9 st3 st4">●</text>
<text transform="matrix(1 0 0 1 1252.4868 238.2432)" class="st9 st3 st4">●</text>
<text transform="matrix(1 0 0 1 1252.4868 231.2588)" class="st9 st3 st4">●</text>
<text transform="matrix(1 0 0 1 1252.4868 243.9277)" class="st9 st3 st4">●</text>
<text transform="matrix(1 0 0 1 1252.4868 245.3613)" class="st9 st3 st4">●</text>
<text transform="matrix(1 0 0 1 1309.6704 240.7246)" class="st9 st3 st4">●</text>
<text transform="matrix(1 0 0 1 1328.7329 225.6221)" class="st9 st3 st4">●</text>
<text transform="matrix(1 0 0 1 1290.606 261.1514)" class="st9 st3 st4">●</text>
<text transform="matrix(1 0 0 1 1271.5415 217.624)" class="st9 st3 st4">●</text>
<text transform="matrix(1 0 0 1 1347.7876 240.6279)" class="st9 st3 st4">●</text>
<text transform="matrix(1 0 0 1 1347.7876 240.7246)" class="st9 st3 st4">●</text>
<text transform="matrix(1 0 0 1 1347.7876 222.0361)" class="st9 st3 st4">●</text>
<text transform="matrix(1 0 0 1 1347.7876 241.6201)" class="st9 st3 st4">●</text>
<text transform="matrix(1 0 0 1 1366.8462 251.6689)" class="st9 st3 st4">●</text>
<text transform="matrix(1 0 0 1 1366.8462 265.5547)" class="st9 st3 st4">●</text>
<text transform="matrix(1 0 0 1 1366.8462 266.0146)" class="st9 st3 st4">●</text>
<text transform="matrix(1 0 0 1 1366.8462 250.0938)" class="st9 st3 st4">●</text>
<text transform="matrix(1 0 0 1 1385.9087 244.9521)" class="st9 st3 st4">●</text>
<text transform="matrix(1 0 0 1 1385.9087 230.1104)" class="st9 st3 st4">●</text>
</svg>
