<?xml version="1.0" encoding="utf-8"?>
<!-- Generator: Adobe Illustrator 24.2.0, SVG Export Plug-In . SVG Version: 6.00 Build 0)  -->
<!DOCTYPE svg PUBLIC "-//W3C//DTD SVG 1.0//EN" "http://www.w3.org/TR/2001/REC-SVG-20010904/DTD/svg10.dtd" [
	<!ENTITY ns_extend "http://ns.adobe.com/Extensibility/1.0/">
	<!ENTITY ns_ai "http://ns.adobe.com/AdobeIllustrator/10.0/">
	<!ENTITY ns_graphs "http://ns.adobe.com/Graphs/1.0/">
	<!ENTITY ns_vars "http://ns.adobe.com/Variables/1.0/">
	<!ENTITY ns_imrep "http://ns.adobe.com/ImageReplacement/1.0/">
	<!ENTITY ns_sfw "http://ns.adobe.com/SaveForWeb/1.0/">
	<!ENTITY ns_custom "http://ns.adobe.com/GenericCustomNamespace/1.0/">
	<!ENTITY ns_adobe_xpath "http://ns.adobe.com/XPath/1.0/">
]>
<svg version="1.0" id="Layer_1" xmlns:x="&ns_extend;" xmlns:i="&ns_ai;" xmlns:graph="&ns_graphs;"
	 xmlns="http://www.w3.org/2000/svg" xmlns:xlink="http://www.w3.org/1999/xlink" x="0px" y="0px" viewBox="0 0 1167.8 347"
	 style="enable-background:new 0 0 1167.8 347;" xml:space="preserve">
<style type="text/css">
	.st0{opacity:0.8;fill:#EEAE6A;enable-background:new    ;}
	.st1{fill:#FFFFFF;}
	.st2{fill:url(#SVGID_1_);}
	.st3{fill:#DD9C62;}
	.st4{fill:#E2AF79;}
	.st5{fill:#EAC281;}
	.st6{fill:url(#SVGID_2_);}
</style>
<metadata>
	<sfw  xmlns="&ns_sfw;">
		<slices></slices>
		<sliceSourceBounds  bottomLeftOrigin="true" height="347" width="1165.6" x="1.1" y="0"></sliceSourceBounds>
	</sfw>
</metadata>
<g>
	<g id="RqxFph_1_">
	</g>
</g>
<g>
	
		<image style="overflow:visible;enable-background:new    ;" width="1169" height="348" id="Layer_1_1_" xlink:href="3B492DB266B90369.png"  transform="matrix(0.9971 0 0 0.9971 1.0996 2.000000e-02)">
	</image>
	<g>
		<path class="st0" d="M506.2,131.4h17.6v2h-15.2v12.3h11.9v2h-11.9v14.6h-2.4L506.2,131.4L506.2,131.4z"/>
		<path class="st0" d="M527.2,147v-0.4c0-8.8,6.3-15.6,15-15.6c8.7,0,15,6.9,15,15.6v0.4c0,8.7-6.3,15.7-15,15.7
			C533.5,162.6,527.2,155.6,527.2,147z M554.8,146.9v-0.4c0-7.5-5-13.5-12.5-13.5s-12.6,5.8-12.6,13.6v0.4c0,7.9,5.5,13.6,12.7,13.6
			C549.7,160.6,554.8,154.8,554.8,146.9z"/>
		<path class="st0" d="M563.5,131.4h8.5c6,0,10.5,2.3,10.5,8.3v0.2c0,5.1-3.4,7.5-8,8.2l9.8,14.3h-2.7l-9.7-14.1h-6v14.1h-2.4
			L563.5,131.4L563.5,131.4z M572.1,146.2c5,0,8-1.9,8-6.4v-0.2c0-4.8-3.2-6.3-8-6.3h-6.2v12.9H572.1z"/>
		<path class="st0" d="M587.6,147v-0.4c0-9,6.3-15.7,14.7-15.7c5.9,0,11.2,2.8,12.4,9.2h-2.4c-1.1-5.1-5-7.3-9.9-7.3
			c-7.4,0-12.3,5.7-12.3,13.7v0.4c0,8.2,4.4,13.6,12.3,13.6c7.2,0,10.8-4.4,10.9-11.2v-0.2h-9.5v-2h11.8v1.8
			c0,8.9-5.3,13.6-13.3,13.6C593.1,162.6,587.6,156.1,587.6,147z"/>
		<path class="st0" d="M621.9,131.4h17.8v2h-15.3v12.1h12.4v2h-12.4v12.9h16.1v2h-18.5L621.9,131.4L621.9,131.4z"/>
		<path class="st0" d="M643.3,161.7l12.4-12.8c3.3-3.4,4.8-6.2,4.8-9.5c0-4.1-2.6-6.4-6.6-6.4c-4,0-6.8,2.3-7.4,7.3h-2.2
			c0.5-5.8,4.2-9.3,9.6-9.3c5.3,0,9,3.1,9,8.4c0,3.8-2.1,7.2-5.9,10.9l-10,9.9h16.3v2h-20.1L643.3,161.7L643.3,161.7z"/>
		<path class="st1" d="M275.2,198.6v-0.3c0-7.4,5.2-12.7,11.6-12.7c5.1,0,9.2,2.7,10.1,7.6h-1.3c-0.9-4.1-4-6.6-8.8-6.6
			c-5.9,0-10.4,4.8-10.4,11.6v0.3c0,7,4,11.6,10.4,11.6c4.8,0,8.3-2.6,9.2-7.1h1.2c-1,5.2-5.1,8.2-10.4,8.2
			C279.8,211.3,275.2,206.1,275.2,198.6z"/>
		<path class="st1" d="M300.5,202v-0.3c0-5.5,3.5-9.4,8.3-9.4c4.5,0,7.9,3.1,7.9,8.9v0.5h-15c0,5.4,2.6,8.5,7.4,8.5
			c3.2,0,5.6-1.4,6.3-4.3h1.2c-0.8,3.4-3.7,5.4-7.5,5.4C303.7,211.3,300.5,207.4,300.5,202z M315.5,200.7c-0.1-4.9-2.8-7.3-6.7-7.3
			s-6.8,2.9-7.1,7.3H315.5z"/>
		<path class="st1" d="M321.1,183.8h1.2V211h-1.2V183.8z"/>
		<path class="st1" d="M328.2,183.8h1.2V211h-1.2V183.8z"/>
		<path class="st1" d="M344.2,206.7v-13.1h-2.8v-1h2.8v-4.2h1.2v4.2h5.1v1h-5.1v13c0,2.5,1.2,3.6,3.1,3.6c1,0,1.7-0.1,2.3-0.4v1.1
			c-0.6,0.2-1.3,0.4-2.4,0.4C345.8,211.3,344.2,209.7,344.2,206.7z"/>
		<path class="st1" d="M360.4,209.6l-7.3-17h1.3l6.7,15.6l6.4-15.6h1.3l-10.3,24.8h-1.2L360.4,209.6z"/>
		<path class="st1" d="M372.5,192.6h1.2v5.1c1.1-2.8,3.9-5.4,7.5-5.4c4.5,0,8.2,3.6,8.2,9.3v0.3c0,5.9-3.6,9.4-8.2,9.4
			c-4,0-6.5-2.7-7.5-5.2v11.3h-1.2V192.6z M388.1,202v-0.3c0-5.4-3.2-8.3-7-8.3c-3.7,0-7.4,3-7.4,8.3v0.3c0,5.2,3.4,8.3,7.4,8.3
			C385.1,210.3,388.1,207.2,388.1,202z"/>
		<path class="st1" d="M392.3,202v-0.3c0-5.5,3.5-9.4,8.3-9.4c4.5,0,7.9,3.1,7.9,8.9v0.5h-15c0,5.4,2.6,8.5,7.4,8.5
			c3.2,0,5.6-1.4,6.3-4.3h1.2c-0.8,3.4-3.7,5.4-7.5,5.4C395.5,211.3,392.3,207.4,392.3,202z M407.3,200.7c-0.1-4.9-2.8-7.3-6.7-7.3
			s-6.8,2.9-7.1,7.3H407.3z"/>
		<path class="st1" d="M412.2,200.6h7.3v1.2h-7.3V200.6z"/>
		<path class="st1" d="M423,205.6h1.2c0.4,2.7,2.1,4.7,5.8,4.7c3.3,0,5.1-1.8,5.1-4.1c0-2.7-1.3-3.4-5.1-4.1c-4.3-0.8-6.3-1.8-6.3-5
			c0-2.9,2.7-4.7,6-4.7s5.7,1.4,6.2,4.8h-1.2c-0.5-2.6-2.2-3.8-5.1-3.8c-2.9,0-4.9,1.5-4.9,3.7c0,2.4,1.5,3.2,5.5,3.9
			c4,0.7,6,1.7,6,5.1c0,2.9-2.3,5.2-6.3,5.2C425.7,211.4,423.2,209,423,205.6z"/>
		<path class="st1" d="M440.6,192.6h1.2v5.1c1.1-2.8,3.9-5.4,7.5-5.4c4.5,0,8.2,3.6,8.2,9.3v0.3c0,5.9-3.6,9.4-8.2,9.4
			c-4,0-6.5-2.7-7.5-5.2v11.3h-1.2V192.6z M456.2,202v-0.3c0-5.4-3.2-8.3-7-8.3c-3.7,0-7.4,3-7.4,8.3v0.3c0,5.2,3.4,8.3,7.4,8.3
			C453.3,210.3,456.2,207.2,456.2,202z"/>
		<path class="st1" d="M460.4,202v-0.3c0-5.5,3.5-9.4,8.3-9.4c4.5,0,7.9,3.1,7.9,8.9v0.5h-15c0,5.4,2.6,8.5,7.4,8.5
			c3.2,0,5.6-1.4,6.3-4.3h1.2c-0.8,3.4-3.7,5.4-7.5,5.4C463.7,211.3,460.4,207.4,460.4,202z M475.5,200.7c-0.1-4.9-2.8-7.3-6.7-7.3
			s-6.8,2.9-7.1,7.3H475.5z"/>
		<path class="st1" d="M479.6,202v-0.3c0-5.6,3.9-9.4,8.7-9.4c3.7,0,7,2.1,7.5,5.9h-1.2c-0.4-3.2-3.2-4.9-6.3-4.9
			c-4.1,0-7.5,3.2-7.5,8.3v0.3c0,5.1,3.3,8.3,7.4,8.3c3.3,0,6-1.9,6.6-5.5h1.1c-0.6,3.9-3.7,6.5-7.7,6.5
			C483.4,211.3,479.6,207.6,479.6,202z"/>
		<path class="st1" d="M500,187.7c0-0.5,0.4-0.9,1-0.9s0.9,0.4,0.9,0.9s-0.4,0.9-0.9,0.9C500.4,188.6,500,188.2,500,187.7z
			 M500.3,192.6h1.2V211h-1.2V192.6z"/>
		<path class="st1" d="M508.2,193.6h-2.9v-1h2.9v-3.5c0-3.9,2.3-5.4,5.1-5.4c0.8,0,1.3,0.1,1.9,0.3v1.1c-0.5-0.2-1.1-0.3-1.9-0.3
			c-2.1,0-3.8,1.1-3.8,4.3v3.6h5.5v1h-5.5V211h-1.2L508.2,193.6L508.2,193.6z"/>
		<path class="st1" d="M518.4,187.7c0-0.5,0.4-0.9,1-0.9s0.9,0.4,0.9,0.9s-0.4,0.9-0.9,0.9C518.8,188.6,518.4,188.2,518.4,187.7z
			 M518.8,192.6h1.2V211h-1.2V192.6z"/>
		<path class="st1" d="M524.3,202v-0.3c0-5.6,3.9-9.4,8.7-9.4c3.7,0,7,2.1,7.5,5.9h-1.2c-0.4-3.2-3.2-4.9-6.3-4.9
			c-4.1,0-7.5,3.2-7.5,8.3v0.3c0,5.1,3.3,8.3,7.4,8.3c3.3,0,6-1.9,6.6-5.5h1.1c-0.6,3.9-3.7,6.5-7.7,6.5
			C528.2,211.3,524.3,207.6,524.3,202z"/>
		<path class="st1" d="M552,206.1c0-4.3,3.8-5.5,8.3-5.5h4.6v-1.8c0-3.8-1.6-5.4-5.1-5.4c-2.9,0-5.2,1.3-5.7,4.3h-1.2
			c0.5-3.6,3.6-5.3,6.9-5.3c4.1,0,6.3,2.1,6.3,6.5V211h-1.2v-3.1c-1.1,1.8-3.2,3.4-6.5,3.4C554.5,211.3,552,209.5,552,206.1z
			 M564.9,205.4v-3.8h-4.6c-3.9,0-7.1,0.9-7.1,4.5c0,2.7,1.8,4.1,5.2,4.1C561.9,210.3,564.9,208.1,564.9,205.4z"/>
		<path class="st1" d="M571.6,192.6h1.2v4c0.8-2.2,3.5-4.3,6.9-4.3c4,0,6.6,2.2,6.6,7.3V211H585v-11.4c0-4.3-2.1-6.2-5.6-6.2
			c-3.3,0-6.7,2.2-6.7,6.5V211h-1.2L571.6,192.6L571.6,192.6z"/>
		<path class="st1" d="M590.5,206.1c0-4.3,3.8-5.5,8.3-5.5h4.6v-1.8c0-3.8-1.6-5.4-5.1-5.4c-2.9,0-5.2,1.3-5.7,4.3h-1.2
			c0.5-3.6,3.6-5.3,6.9-5.3c4.1,0,6.3,2.1,6.3,6.5V211h-1.2v-3.1c-1.1,1.8-3.2,3.4-6.5,3.4C593,211.3,590.5,209.5,590.5,206.1z
			 M603.4,205.4v-3.8h-4.6c-3.9,0-7.1,0.9-7.1,4.5c0,2.7,1.8,4.1,5.2,4.1C600.4,210.3,603.4,208.1,603.4,205.4z"/>
		<path class="st1" d="M610.2,183.8h1.2V211h-1.2V183.8z"/>
		<path class="st1" d="M622.5,209.6l-7.3-17h1.3l6.7,15.6l6.4-15.6h1.3l-10.3,24.8h-1.2L622.5,209.6z"/>
		<path class="st1" d="M632.8,205.6h1.2c0.3,2.7,2.2,4.7,5.8,4.7c3.3,0,5.1-1.8,5.1-4.1c0-2.7-1.3-3.4-5.1-4.1
			c-4.3-0.8-6.3-1.8-6.3-5c0-2.9,2.7-4.7,6-4.7s5.7,1.4,6.2,4.8h-1.2c-0.5-2.6-2.2-3.8-5.1-3.8c-2.9,0-4.9,1.5-4.9,3.7
			c0,2.4,1.5,3.2,5.5,3.9c4,0.7,6,1.7,6,5.1c0,2.9-2.3,5.2-6.3,5.2C635.6,211.4,633.1,209,632.8,205.6z"/>
		<path class="st1" d="M650.2,187.7c0-0.5,0.4-0.9,1-0.9s0.9,0.4,0.9,0.9s-0.4,0.9-0.9,0.9C650.6,188.6,650.2,188.2,650.2,187.7z
			 M650.5,192.6h1.2V211h-1.2V192.6z"/>
		<path class="st1" d="M655.9,205.6h1.2c0.3,2.7,2.2,4.7,5.8,4.7c3.3,0,5.1-1.8,5.1-4.1c0-2.7-1.3-3.4-5.1-4.1
			c-4.3-0.8-6.3-1.8-6.3-5c0-2.9,2.7-4.7,6-4.7s5.7,1.4,6.2,4.8h-1.2c-0.5-2.6-2.2-3.8-5.1-3.8c-2.9,0-4.9,1.5-4.9,3.7
			c0,2.4,1.5,3.2,5.5,3.9c4,0.7,6,1.7,6,5.1c0,2.9-2.3,5.2-6.3,5.2C658.7,211.4,656.2,209,655.9,205.6z"/>
		<path class="st1" d="M680.5,202v-0.3c0-5.5,4-9.3,8.8-9.3c4.8,0,8.7,3.7,8.7,9.3v0.3c0,5.6-4,9.4-8.8,9.4
			C684.4,211.3,680.5,207.4,680.5,202z M696.8,201.9v-0.3c0-5.2-3.5-8.3-7.5-8.3c-4.1,0-7.6,3.2-7.6,8.3v0.3c0,5,3.4,8.3,7.6,8.3
			C693.4,210.3,696.8,207.1,696.8,201.9z"/>
		<path class="st1" d="M703.1,193.6h-2.9v-1h2.9v-3.5c0-3.9,2.3-5.4,5.1-5.4c0.8,0,1.3,0.1,1.9,0.3v1.1c-0.5-0.2-1.1-0.3-1.9-0.3
			c-2.1,0-3.8,1.1-3.8,4.3v3.6h5.5v1h-5.5V211h-1.2V193.6z"/>
		<path class="st1" d="M720.8,198.6v-0.3c0-7.4,5.2-12.7,11.9-12.7c4.8,0,9,2.2,10,7.1h-1.3c-1-4.2-4.4-6.1-8.7-6.1
			c-6.2,0-10.6,4.8-10.6,11.6v0.3c0,7,3.9,11.6,10.7,11.6c6.2,0,9.5-3.7,9.5-9.8v-0.2h-8V199h9.2v1.2c0,7.2-4.3,11.1-10.7,11.1
			C725.3,211.3,720.8,206,720.8,198.6z"/>
		<path class="st1" d="M745.7,185.9h1.3l6.2,23.3l7.1-23.3h0.9l6.7,23.4l6.6-23.4h1.2l-7.2,25.2h-1.3l-6.5-22.8l-7,22.8h-1.3
			L745.7,185.9z"/>
		<path class="st1" d="M784.7,185.9h1.7l9.4,25.2h-1.3l-3-8h-11.9l-3,8h-1.2L784.7,185.9z M779.9,201.9h11.2l-5.6-15.1L779.9,201.9z
			"/>
		<path class="st1" d="M797.5,204.1h1.2c0.5,3.3,2.6,6.1,7.9,6.1c4.4,0,7-2.5,7-5.8c0-3.9-1.9-5.1-7.2-5.9c-5.6-0.8-8-2.8-8-6.4
			c0-3.9,3.1-6.4,7.8-6.4c4.5,0,7.2,2.2,7.7,5.9h-1.2c-0.6-3.1-2.6-4.9-6.5-4.9c-4.1,0-6.6,1.9-6.6,5.3c0,3,1.7,4.6,6.9,5.4
			c5.7,0.8,8.2,2.3,8.2,7c0,3.8-3.1,6.9-8.3,6.9C800.8,211.3,798,208.1,797.5,204.1z"/>
		<path class="st1" d="M826.5,202v-0.3c0-5.7,3.8-9.4,8.5-9.4c3.9,0,6.1,2.5,7.1,5.1v-13.6h1.2V211h-1.2v-4.9
			c-0.9,2.4-3.5,5.2-7.4,5.2C830.2,211.3,826.5,207.9,826.5,202z M842.2,202v-0.3c0-5.3-3.1-8.3-7.1-8.3c-4.1,0-7.4,3-7.4,8.3v0.3
			c0,5.3,3.1,8.3,7.1,8.3C838.8,210.3,842.2,207.2,842.2,202z"/>
		<path class="st1" d="M847.8,206.1c0-4.3,3.8-5.5,8.3-5.5h4.6v-1.8c0-3.8-1.6-5.4-5.1-5.4c-2.9,0-5.2,1.3-5.7,4.3h-1.2
			c0.5-3.6,3.6-5.3,6.9-5.3c4.1,0,6.3,2.1,6.3,6.5V211h-1.2v-3.1c-1.1,1.8-3.2,3.4-6.5,3.4C850.3,211.3,847.8,209.5,847.8,206.1z
			 M860.7,205.4v-3.8h-4.6c-3.9,0-7.1,0.9-7.1,4.5c0,2.7,1.8,4.1,5.2,4.1C857.7,210.3,860.7,208.1,860.7,205.4z"/>
		<path class="st1" d="M868.2,206.7v-13.1h-2.8v-1h2.8v-4.2h1.2v4.2h5.1v1h-5.1v13c0,2.5,1.2,3.6,3.1,3.6c1,0,1.7-0.1,2.3-0.4v1.1
			c-0.6,0.2-1.3,0.4-2.4,0.4C869.7,211.3,868.2,209.7,868.2,206.7z"/>
		<path class="st1" d="M877.7,206.1c0-4.3,3.8-5.5,8.3-5.5h4.6v-1.8c0-3.8-1.6-5.4-5.1-5.4c-2.9,0-5.2,1.3-5.7,4.3h-1.2
			c0.5-3.6,3.6-5.3,6.9-5.3c4.1,0,6.3,2.1,6.3,6.5V211h-1.2v-3.1c-1.1,1.8-3.2,3.4-6.5,3.4C880.2,211.3,877.7,209.5,877.7,206.1z
			 M890.6,205.4v-3.8H886c-3.9,0-7.1,0.9-7.1,4.5c0,2.7,1.8,4.1,5.2,4.1C887.6,210.3,890.6,208.1,890.6,205.4z"/>
	</g>
	<g>
		<g>
			<g>
				
					<linearGradient id="SVGID_1_" gradientUnits="userSpaceOnUse" x1="1102.45" y1="65.46" x2="1138.0699" y2="65.46" gradientTransform="matrix(1 0 0 -1 0 350)">
					<stop  offset="0" style="stop-color:#E2AF79"/>
					<stop  offset="1" style="stop-color:#EBC48E"/>
				</linearGradient>
				<polygon class="st2" points="1102.4,243.3 1137.8,325.8 1138.1,325.8 1102.7,243.3 				"/>
				<polygon class="st3" points="1108.1,243.3 1111.6,251.4 1111.8,251.4 1108.3,243.3 				"/>
				<polygon class="st4" points="1128.1,289.4 1127.8,289.4 1129.2,292.6 1129.4,292.6 				"/>
				<polygon class="st4" points="1126.1,284.7 1125.8,284.7 1127,287.4 1127.2,287.4 				"/>
				<polygon class="st4" points="1121.1,273.2 1120.9,273.2 1124.2,280.9 1124.4,280.9 				"/>
				<polygon class="st3" points="1118.6,267.3 1118.3,267.3 1120.1,271.3 1120.3,271.3 				"/>
				<polygon class="st3" points="1113.1,254.5 1112.9,254.5 1114.2,257.7 1114.5,257.7 				"/>
				<polygon class="st3" points="1116.3,261.9 1116,261.9 1117.6,265.5 1117.8,265.5 				"/>
				<polygon class="st4" points="1137,310.2 1136.8,310.2 1137.5,311.8 1137.7,311.8 				"/>
				<polygon class="st5" points="1138.2,313.1 1138,313.1 1138.8,314.9 1139,314.9 				"/>
				<polygon class="st5" points="1143.7,325.8 1139.8,316.8 1139.6,316.8 1143.4,325.8 				"/>
				<polygon class="st4" points="1135.3,306.3 1135.1,306.3 1136.3,309.2 1136.6,309.2 				"/>
				<polygon class="st4" points="1130.4,294.9 1130.2,294.9 1131.5,297.9 1131.7,297.9 				"/>
				<polygon class="st5" points="1132.8,300.4 1132.5,300.4 1134.4,304.8 1134.7,304.8 				"/>
				<polygon class="st4" points="1126.2,278.5 1125.9,278.5 1128.6,284.7 1128.9,284.7 				"/>
				<polygon class="st4" points="1122.5,269.8 1122.2,269.8 1124.7,275.6 1125,275.6 				"/>
				<polygon class="st3" points="1111.1,243.3 1110.9,243.3 1115.7,254.5 1115.9,254.5 				"/>
				<polygon class="st3" points="1116.5,255.9 1116.2,255.9 1118.8,261.9 1119.1,261.9 				"/>
				<polygon class="st5" points="1143,317.6 1142.7,317.6 1146.2,325.8 1146.5,325.8 				"/>
				<polygon class="st5" points="1136.4,302.4 1136.2,302.4 1141.9,315.8 1142.2,315.8 				"/>
				<polygon class="st4" points="1133.9,296.4 1133.7,296.4 1135.6,300.9 1135.8,300.9 				"/>
				<polygon class="st4" points="1131.1,289.9 1130.8,289.9 1133,294.9 1133.2,294.9 				"/>
				<polygon class="st4" points="1123.1,274.6 1122.9,274.6 1123.8,276.7 1124.1,276.7 				"/>
				<polygon class="st3" points="1109.7,243.3 1109.5,243.3 1116.2,259 1116.4,259 				"/>
				<polygon class="st4" points="1126.2,281.7 1125.9,281.7 1126.7,283.4 1126.9,283.4 				"/>
				<polygon class="st3" points="1118.6,264 1118.4,264 1119.4,266.5 1119.7,266.5 				"/>
				<polygon class="st4" points="1120.3,268 1120.1,268 1121.9,272.2 1122.1,272.2 				"/>
				<polygon class="st5" points="1137.6,308.2 1137.3,308.2 1138.5,311 1138.8,311 				"/>
				<polygon class="st5" points="1145.1,325.8 1139.3,312.4 1139.1,312.4 1144.8,325.8 				"/>
				<polygon class="st4" points="1134.9,302 1134.6,302 1136.7,306.8 1136.9,306.8 				"/>
				<polygon class="st4" points="1128.1,286.2 1127.9,286.2 1130.1,291.3 1130.3,291.3 				"/>
				<polygon class="st4" points="1131.3,293.6 1131,293.6 1132.2,296.3 1132.4,296.3 				"/>
				<polygon class="st4" points="1133.1,297.9 1132.9,297.9 1133.4,299 1133.6,299 				"/>
				<polygon class="st3" points="1115.7,263.7 1115.4,263.7 1117.4,268.3 1117.6,268.3 				"/>
				<polygon class="st4" points="1118.4,270 1118.1,270 1120,274.5 1120.3,274.5 				"/>
				<polygon class="st3" points="1106.9,243.3 1106.7,243.3 1112.4,256.6 1112.6,256.6 				"/>
				<polygon class="st3" points="1113.6,259 1113.4,259 1115.1,262.9 1115.3,262.9 				"/>
				<polygon class="st4" points="1120.7,275.5 1120.5,275.5 1122.4,280.1 1122.7,280.1 				"/>
				<polygon class="st4" points="1131.9,301.5 1131.6,301.5 1132,302.4 1132.2,302.4 				"/>
				<polygon class="st5" points="1142.3,325.8 1132.9,303.8 1132.6,303.8 1142,325.8 				"/>
				<polygon class="st4" points="1127.8,292 1127.5,292 1129.8,297.2 1130,297.2 				"/>
				<polygon class="st4" points="1130.7,298.7 1130.4,298.7 1131.1,300.4 1131.4,300.4 				"/>
				<polygon class="st4" points="1123.6,282.3 1123.4,282.3 1126.9,290.6 1127.2,290.6 				"/>
				<polygon class="st4" points="1115.5,269.8 1115.2,269.8 1117.6,275.2 1117.8,275.2 				"/>
				<polygon class="st4" points="1119.8,279.8 1119.5,279.8 1121.2,283.6 1121.4,283.6 				"/>
				<polygon class="st3" points="1104.1,243.3 1103.8,243.3 1112.1,262.5 1112.3,262.5 				"/>
				<polygon class="st4" points="1123.3,288.1 1123.1,288.1 1123.6,289.4 1123.9,289.4 				"/>
				<polygon class="st4" points="1113,264.1 1112.8,264.1 1114.5,268 1114.7,268 				"/>
				<polygon class="st5" points="1130.8,305.6 1130.6,305.6 1136.4,319.2 1136.6,319.2 				"/>
				<polygon class="st5" points="1137.1,320.3 1136.9,320.3 1137.2,321 1137.4,321 				"/>
				<polygon class="st5" points="1139.5,325.8 1137.8,321.8 1137.5,321.8 1139.2,325.8 				"/>
				<polygon class="st4" points="1125.5,293.2 1125.3,293.2 1127.3,297.9 1127.5,297.9 				"/>
				<polygon class="st4" points="1128.2,299.6 1128,299.6 1130.2,304.8 1130.5,304.8 				"/>
				<polygon class="st4" points="1118.1,273.2 1120.3,278.5 1120.6,278.5 1118.3,273.2 				"/>
				<polygon class="st4" points="1121.6,281.5 1123.9,286.9 1124.2,286.9 1121.9,281.5 				"/>
				<polygon class="st3" points="1113.5,262.5 1114.8,265.5 1115,265.5 1113.7,262.5 				"/>
				<polygon class="st3" points="1105.5,243.3 1105.2,243.3 1112.8,260.9 1113.1,260.9 				"/>
				<polygon class="st5" points="1134.1,310.6 1136.8,316.8 1137,316.8 1134.3,310.6 				"/>
				<polygon class="st4" points="1132.2,306.2 1133.1,308.3 1133.4,308.3 1132.5,306.2 				"/>
				<polygon class="st4" points="1125.6,290.7 1127.9,296 1128.1,296 1125.8,290.7 				"/>
				<polygon class="st5" points="1137.5,317.8 1137.2,317.8 1140.6,325.8 1140.9,325.8 				"/>
				<polygon class="st4" points="1129.6,300.1 1130.5,302 1130.7,302 1129.8,300.1 				"/>
				<polygon class="st4" points="1114.7,274.6 1114.5,274.6 1116.1,278.5 1116.4,278.5 				"/>
				<polygon class="st3" points="1111.9,268.1 1111.7,268.1 1113.5,272.4 1113.8,272.4 				"/>
				<polygon class="st4" points="1110.1,263.7 1109.8,263.7 1110.8,266 1111,266 				"/>
				<polygon class="st3" points="1101.3,243.3 1101.1,243.3 1108.6,260.9 1108.9,260.9 				"/>
				<polygon class="st4" points="1118,282.3 1117.8,282.3 1119.2,285.7 1119.5,285.7 				"/>
				<polygon class="st4" points="1124.7,297.9 1124.5,297.9 1124.9,299 1125.2,299 				"/>
				<polygon class="st5" points="1126.5,302 1126.2,302 1134.4,321 1134.6,321 				"/>
				<polygon class="st5" points="1136.7,325.8 1135.5,323 1135.2,323 1136.4,325.8 				"/>
				<polygon class="st4" points="1122.7,293.2 1122.5,293.2 1123.8,296.4 1124.1,296.4 				"/>
				<polygon class="st4" points="1120.2,287.4 1120,287.4 1120.8,289.4 1121.1,289.4 				"/>
				<polygon class="st4" points="1121.3,289.9 1121,289.9 1121.7,291.3 1121.9,291.3 				"/>
				<polygon class="st4" points="1115.6,279.8 1115.3,279.8 1117.8,285.7 1118.1,285.7 				"/>
				<polygon class="st4" points="1112.7,273.2 1112.5,273.2 1114,276.7 1114.2,276.7 				"/>
				<polygon class="st3" points="1099.9,243.3 1099.7,243.3 1109.9,267.3 1110.2,267.3 				"/>
				<polygon class="st3" points="1111.3,269.8 1111,269.8 1111.7,271.3 1111.9,271.3 				"/>
				<polygon class="st4" points="1122.7,296.4 1122.4,296.4 1124.6,301.5 1124.8,301.5 				"/>
				<polygon class="st5" points="1126.1,304.3 1125.8,304.3 1127.3,307.8 1127.5,307.8 				"/>
				<polygon class="st5" points="1127.9,309.2 1135,325.8 1135.3,325.8 1128.2,309.2 				"/>
				<polygon class="st4" points="1119.9,289.9 1119.6,289.9 1121.8,294.9 1122,294.9 				"/>
				<polygon class="st4" points="1121.1,296 1120.8,296 1122.2,299 1122.4,299 				"/>
				<polygon class="st4" points="1118.3,289.4 1118,289.4 1119.4,292.6 1119.6,292.6 				"/>
				<polygon class="st4" points="1116.3,284.7 1116,284.7 1117.2,287.4 1117.4,287.4 				"/>
				<polygon class="st3" points="1098.5,243.3 1098.2,243.3 1115,282.3 1115.2,282.3 				"/>
				<polygon class="st4" points="1128.1,312.4 1127.9,312.4 1128.6,314 1128.8,314 				"/>
				<polygon class="st4" points="1123.3,301.1 1123,301.1 1124,303.4 1124.3,303.4 				"/>
				<polygon class="st5" points="1133.9,325.8 1129.2,314.9 1128.9,314.9 1133.6,325.8 				"/>
				<polygon class="st5" points="1126.5,308.5 1126.2,308.5 1127.3,311 1127.5,311 				"/>
				<polygon class="st4" points="1125.2,305.6 1125,305.6 1125.7,307.2 1125.9,307.2 				"/>
				<polygon class="st4" points="1113,280.5 1112.8,280.5 1115.5,286.9 1115.8,286.9 				"/>
				<polygon class="st3" points="1097.1,243.3 1096.8,243.3 1106.6,266 1106.8,266 				"/>
				<polygon class="st4" points="1108.8,270.6 1108.5,270.6 1108.6,270.6 1108.8,270.6 				"/>
				<polygon class="st4" points="1116.6,288.7 1116.3,288.7 1118.6,294 1118.8,294 				"/>
				<polygon class="st4" points="1108.8,270.6 1108.6,270.6 1111.6,277.7 1111.8,277.7 				"/>
				<polygon class="st4" points="1123.5,304.8 1123.2,304.8 1124.8,308.5 1125.1,308.5 				"/>
				<polygon class="st5" points="1132.5,325.8 1125.9,310.6 1125.7,310.6 1132.2,325.8 				"/>
				<polygon class="st4" points="1119.5,295.6 1119.3,295.6 1120.5,298.5 1120.8,298.5 				"/>
				<polygon class="st4" points="1121.8,300.9 1121.6,300.9 1122.6,303.4 1122.9,303.4 				"/>
				<polygon class="st4" points="1121,305.6 1120.8,305.6 1121.5,307.2 1121.7,307.2 				"/>
				<polygon class="st4" points="1119.5,302 1119.2,302 1120.2,304.3 1120.4,304.3 				"/>
				<polygon class="st5" points="1122.2,308.4 1121.9,308.4 1122.9,310.6 1123.1,310.6 				"/>
				<polygon class="st4" points="1115.2,292 1114.9,292 1118.4,300.1 1118.6,300.1 				"/>
				<polygon class="st3" points="1094.3,243.3 1094,243.3 1113.8,289.4 1114.1,289.4 				"/>
				<polygon class="st5" points="1126.4,318.2 1126.2,318.2 1126.6,319.1 1126.8,319.1 				"/>
				<polygon class="st5" points="1129.7,325.8 1127.3,320.3 1127.1,320.3 1129.4,325.8 				"/>
				<polygon class="st5" points="1123.5,311.4 1123.2,311.4 1125.1,315.8 1125.4,315.8 				"/>
				<polygon class="st5" points="1125.7,316.5 1125.4,316.5 1125.7,317.2 1126,317.2 				"/>
				<polygon class="st4" points="1115.9,290.4 1115.6,290.4 1117.4,294.6 1117.7,294.6 				"/>
				<polygon class="st5" points="1122.1,304.8 1121.8,304.8 1123.1,307.8 1123.3,307.8 				"/>
				<polygon class="st3" points="1095.7,243.3 1095.4,243.3 1112.2,282.3 1112.4,282.3 				"/>
				<polygon class="st4" points="1113.4,284.7 1113.2,284.7 1114.4,287.4 1114.6,287.4 				"/>
				<polygon class="st4" points="1118.9,297.5 1118.7,297.5 1119.9,300.4 1120.2,300.4 				"/>
				<polygon class="st5" points="1126.9,316.1 1126.7,316.1 1127.1,317.2 1127.4,317.2 				"/>
				<polygon class="st5" points="1131.1,325.8 1127.8,318.1 1127.5,318.1 1130.8,325.8 				"/>
				<polygon class="st4" points="1123.6,308.4 1123.3,308.4 1125.5,313.4 1125.7,313.4 				"/>
				<polygon class="st5" points="1126,314 1125.8,314 1126.3,315.2 1126.5,315.2 				"/>
				
					<linearGradient id="SVGID_2_" gradientUnits="userSpaceOnUse" x1="1070.1768" y1="30.8942" x2="1093.2964" y2="85.3821" gradientTransform="matrix(1 0 0 -1 0 350)">
					<stop  offset="0" style="stop-color:#EBC48E"/>
					<stop  offset="1" style="stop-color:#E2AF79"/>
				</linearGradient>
				<polygon class="st6" points="1073.9,309.4 1074.4,309.4 1097.4,255.8 1097.2,255.2 				"/>
				<polygon class="st5" points="1072.3,294 1072.8,294 1074.5,289.9 1074,289.9 				"/>
				<polygon class="st5" points="1069.9,299.6 1070.4,299.6 1071.7,296.4 1071.2,296.4 				"/>
				<polygon class="st5" points="1065.7,309.4 1066.2,309.4 1069.8,301 1069.3,301 				"/>
				<polygon class="st4" points="1076.3,284.7 1076.7,284.7 1079.4,278.5 1078.9,278.5 				"/>
				<polygon class="st3" points="1093.3,246.2 1093,245.6 1089.2,254.5 1089.7,254.5 				"/>
				<polygon class="st4" points="1086.1,261.9 1086.6,261.9 1089.1,255.9 1088.6,255.9 				"/>
				<polygon class="st4" points="1080.3,275.2 1080.8,275.2 1083,270 1082.6,270 				"/>
				<polygon class="st4" points="1072.6,296.3 1073.1,296.3 1074.3,293.6 1073.8,293.6 				"/>
				<polygon class="st5" points="1074.8,291.3 1075.2,291.3 1077.4,286.2 1076.9,286.2 				"/>
				<polygon class="st5" points="1069.6,303.4 1067,309.4 1067.5,309.4 1070.1,303.4 				"/>
				<polygon class="st5" points="1070.9,300.4 1071.3,300.4 1072.4,297.9 1071.9,297.9 				"/>
				<polygon class="st3" points="1083.3,271.3 1083.8,271.3 1085.2,268 1084.8,268 				"/>
				<polygon class="st3" points="1085.4,266.5 1085.9,266.5 1087.1,263.7 1086.6,263.7 				"/>
				<polygon class="st4" points="1093.9,247.7 1093.7,247.2 1088.6,259 1089.1,259 				"/>
				<polygon class="st5" points="1078.1,283.4 1078.6,283.4 1079.4,281.7 1078.9,281.7 				"/>
				<polygon class="st4" points="1080.6,277.7 1081.1,277.7 1082.5,274.5 1082,274.5 				"/>
				<polygon class="st5" points="1074.7,298 1075.1,298 1076,296.1 1075.5,296.1 				"/>
				<polygon class="st4" points="1081.7,281.7 1077.5,291.3 1078,291.3 1082.1,281.7 				"/>
				<polygon class="st5" points="1074,299.6 1069.8,309.4 1070.3,309.4 1074.5,299.6 				"/>
				<polygon class="st4" points="1082.5,279.8 1083,279.8 1084.5,276.1 1084.1,276.1 				"/>
				<polygon class="st4" points="1095.3,250.9 1095.1,250.4 1090.2,261.9 1090.7,261.9 				"/>
				<polygon class="st4" points="1084.8,274.5 1085.2,274.5 1087,270.4 1086.5,270.4 				"/>
				<g>
					<polygon class="st4" points="1089.4,263.7 1087.1,269.1 1087.5,269.1 1089.8,263.7 					"/>
				</g>
				<polygon class="st5" points="1080.6,287.4 1081.1,287.4 1083.5,281.7 1083,281.7 				"/>
				<polygon class="st4" points="1074.5,301.5 1075,301.5 1076.2,298.8 1075.7,298.8 				"/>
				<polygon class="st5" points="1072.7,305.8 1073.2,305.8 1073.8,304.5 1073.3,304.5 				"/>
				<polygon class="st4" points="1079.5,289.9 1076.9,296 1077.4,296 1080,289.9 				"/>
				<polygon class="st4" points="1088.9,268 1089.4,268 1090.5,265.5 1090,265.5 				"/>
				<polygon class="st3" points="1095.8,252 1090.8,263.7 1091.2,263.7 1096,252.6 				"/>
				<polygon class="st4" points="1084.4,278.5 1084.9,278.5 1087.2,273.1 1086.7,273.1 				"/>
				<g>
					<polygon class="st5" points="1071.2,309.4 1071.7,309.4 1072.6,307.1 1072.2,307.1 					"/>
				</g>
				<polygon class="st5" points="1074.6,294.9 1075.1,294.9 1076.1,292.6 1075.6,292.6 				"/>
				<polygon class="st5" points="1077,289.4 1077.5,289.4 1078.3,287.4 1077.8,287.4 				"/>
				<polygon class="st4" points="1071.7,301.7 1071,303.4 1071.4,303.4 1072.2,301.7 				"/>
				<polygon class="st5" points="1068.4,309.4 1068.9,309.4 1070.4,305.8 1070,305.8 				"/>
				<polygon class="st4" points="1084.1,272.7 1084.6,272.7 1086.6,268 1086.1,268 				"/>
				<polygon class="st3" points="1094.4,248.8 1087.2,265.5 1087.7,265.5 1094.6,249.3 				"/>
				<polygon class="st4" points="1079,284.8 1079.4,284.8 1081.6,279.8 1081.1,279.8 				"/>
				<polygon class="st4" points="1073.7,297.1 1072.9,298.9 1073.4,298.9 1074.2,297.1 1074.1,297.1 				"/>
				<polygon class="st5" points="1077.8,297.1 1078.3,297.1 1079.7,293.8 1079.2,293.8 				"/>
				<polygon class="st5" points="1075.4,302.6 1075.9,302.6 1077.6,298.8 1077.1,298.8 				"/>
				<polygon class="st5" points="1072.5,309.4 1073,309.4 1075.1,304.5 1074.7,304.5 				"/>
				<polygon class="st4" points="1081.1,289.4 1081.6,289.4 1082.4,287.4 1082,287.4 				"/>
				<polygon class="st4" points="1087.2,275.2 1087.7,275.2 1090.3,269.1 1089.8,269.1 				"/>
				<polygon class="st3" points="1096.7,254.2 1096.5,253.6 1090.3,268 1090.8,268 				"/>
				<polygon class="st4" points="1083.7,283.4 1084.2,283.4 1085.7,279.8 1085.2,279.8 				"/>
				<polygon class="st5" points="1081,296.1 1081.5,296.1 1082.5,293.8 1082,293.8 				"/>
				<polygon class="st4" points="1082.9,291.6 1083.4,291.6 1084.2,289.9 1083.7,289.9 				"/>
				<polygon class="st5" points="1083.9,289.4 1084.4,289.4 1085.2,287.4 1084.7,287.4 				"/>
				<polygon class="st4" points="1080.2,298 1080.7,298 1081.1,297.1 1080.6,297.1 				"/>
				<polygon class="st5" points="1075.3,309.4 1075.8,309.4 1079.4,301.1 1078.9,301.1 				"/>
				<polygon class="st3" points="1098.1,257.4 1097.8,256.9 1094.2,265.5 1094.6,265.5 				"/>
				<polygon class="st3" points="1091.4,271.9 1091.9,271.9 1093.6,268 1093.1,268 				"/>
				<polygon class="st4" points="1085.5,285.6 1086,285.6 1087.5,282 1087.1,282 				"/>
				<polygon class="st4" points="1088.7,278.2 1089.2,278.2 1091,274 1090.5,274 				"/>
				<polygon class="st5" points="1082.9,294.9 1083.4,294.9 1085.6,289.9 1085.1,289.9 				"/>
				<polygon class="st4" points="1080.7,300.2 1081.2,300.2 1082.9,296.1 1082.4,296.1 				"/>
				<polygon class="st5" points="1078.2,305.8 1078.7,305.8 1080.2,302.3 1079.8,302.3 				"/>
				<polygon class="st4" points="1090.7,276.7 1091.2,276.7 1092.9,272.7 1092.4,272.7 				"/>
				<polygon class="st4" points="1092.8,271.9 1093.3,271.9 1094.4,269.3 1093.9,269.3 				"/>
				<polygon class="st3" points="1098.8,259 1098.6,258.5 1094.4,268 1094.9,268 				"/>
				<polygon class="st4" points="1086.9,285.6 1087.4,285.6 1089.7,280.2 1089.2,280.2 				"/>
				<g>
					<polygon class="st5" points="1076.7,309.4 1077.2,309.4 1078.2,307.1 1077.7,307.1 					"/>
				</g>
				<polygon class="st5" points="1080.5,303.8 1081,303.8 1082.5,300.2 1082.1,300.2 				"/>
				<polygon class="st5" points="1078.1,309.4 1078.6,309.4 1080.1,305.8 1079.6,305.8 				"/>
				<polygon class="st5" points="1083,298 1083.5,298 1084.3,296.1 1083.8,296.1 				"/>
				<polygon class="st5" points="1087.5,287.4 1088,287.4 1088.8,285.6 1088.3,285.6 				"/>
				<polygon class="st4" points="1099.5,260.6 1099.2,260.1 1089.2,283.4 1089.7,283.4 				"/>
				<polygon class="st4" points="1084.8,293.8 1085.3,293.8 1087.2,289.4 1086.7,289.4 				"/>
				<polygon class="st5" points="1083.9,299.1 1084.4,299.1 1085.9,295.4 1085.5,295.4 				"/>
				<polygon class="st5" points="1079.5,309.4 1079.9,309.4 1080.9,307.1 1080.4,307.1 				"/>
				<polygon class="st4" points="1100.2,262.3 1099.9,261.7 1093.5,276.7 1094,276.7 				"/>
				<polygon class="st5" points="1085.7,294.9 1086.2,294.9 1088.9,288.5 1088.4,288.5 				"/>
				<polygon class="st4" points="1089.3,286.5 1089.8,286.5 1092.5,280.2 1092,280.2 				"/>
				<g>
					<polygon class="st5" points="1081.4,304.9 1081.9,304.9 1083.9,300.2 1083.4,300.2 					"/>
				</g>
				<polygon class="st5" points="1083.3,303.8 1083.8,303.8 1084.9,301.1 1084.4,301.1 				"/>
				<polygon class="st5" points="1080.8,309.4 1081.3,309.4 1082.9,305.8 1082.4,305.8 				"/>
				<polygon class="st4" points="1085.3,299.1 1085.7,299.1 1088,293.8 1087.6,293.8 				"/>
				<polygon class="st4" points="1100.9,263.9 1100.6,263.3 1092.6,282 1093.1,282 				"/>
				<polygon class="st4" points="1088.8,290.8 1089.3,290.8 1092.2,284.1 1091.7,284.1 				"/>
				<polygon class="st5" points="1085.6,301.7 1086.1,301.7 1086.7,300.2 1086.2,300.2 				"/>
				<polygon class="st4" points="1084.4,304.5 1084.8,304.5 1085.6,302.6 1085.2,302.6 				"/>
				<polygon class="st5" points="1082.2,309.4 1082.7,309.4 1084.5,305.3 1084,305.3 				"/>
				<polygon class="st4" points="1101.6,265.5 1101.3,264.9 1088.2,295.4 1088.7,295.4 				"/>
				<polygon class="st5" points="1086.8,298.8 1087.3,298.8 1088,297.1 1087.5,297.1 				"/>
			</g>
		</g>
		<g>
			<g>
				<polygon class="st4" points="1065.8,325.8 1066.4,325.8 1065.3,323.2 1064.7,323.2 				"/>
				<polygon class="st4" points="1062.9,317.7 1062.6,317.7 1059.1,325.8 1059.7,325.8 1060.9,323.1 1062.7,323.1 1062.9,322.6 
					1061.1,322.6 1061.1,322.6 1062.8,318.7 1062.8,318.7 1064.4,322.5 1065,322.5 				"/>
				<polygon class="st4" points="1069,325.8 1073.2,325.8 1073.5,325.2 1069.6,325.2 1069.6,323.2 1069,323.2 				"/>
				<rect x="1069" y="317.7" class="st4" width="0.6" height="4.9"/>
				<polygon class="st4" points="1077.2,318.2 1079.5,318.2 1079.7,317.7 1074.4,317.7 1074.2,318.2 1076.7,318.2 1076.7,322.5 
					1077.2,322.5 				"/>
				<rect x="1076.7" y="323.2" class="st4" width="0.6" height="2.6"/>
				<rect x="1083.3" y="323.2" class="st4" width="0.6" height="2.6"/>
				<rect x="1083.3" y="317.7" class="st4" width="0.6" height="4.9"/>
				<path class="st4" d="M1102.1,323.2c0,0.1,0,0.2,0,0.3c0,1.2-1.2,1.8-2.3,1.8c-1.1,0-2.3-0.6-2.3-1.8v-0.2l-0.3-0.1l-0.3,0.2v0.2
					c0,1.4,1.2,2.4,2.9,2.4c1.7,0,2.8-0.9,2.8-2.3c0-0.1,0-0.2,0-0.3L1102.1,323.2L1102.1,323.2z"/>
				<path class="st4" d="M1102.3,322.4c-0.3-0.4-0.7-0.6-1.3-0.8l-2.3-0.6c-0.8-0.2-1.1-0.6-1.1-1.3c0-1,0.8-1.6,2.1-1.6
					c0.9,0,1.6,0.3,2,0.9l0,0l0.3,0l0.1-0.3l0,0c-0.5-0.7-1.4-1.2-2.4-1.2c-1.6,0-2.7,0.9-2.7,2.2c0,1,0.5,1.6,1.5,1.8l2.3,0.6
					c0.3,0.1,0.6,0.2,0.7,0.4h0.7L1102.3,322.4z"/>
				<polygon class="st4" points="1091.1,324.8 1091.1,324.8 1088,317.7 1087.4,317.7 1090.9,325.8 1091.2,325.8 1092.3,323.2 
					1091.7,323.2 				"/>
				<polygon class="st4" points="1094.7,317.7 1094.1,317.7 1092,322.5 1092.6,322.5 				"/>
			</g>
		</g>
	</g>
	
		<image style="overflow:visible;enable-background:new    ;" width="213" height="313" xlink:href="3B492DB266B90368.png"  transform="matrix(0.9971 0 0 0.9971 947.881 27.6797)">
	</image>
</g>
</svg>
