<?xml version="1.0" encoding="utf-8"?>
<!-- Generator: Adobe Illustrator 24.2.0, SVG Export Plug-In . SVG Version: 6.00 Build 0)  -->
<svg version="1.1" id="Layer_1" xmlns="http://www.w3.org/2000/svg" xmlns:xlink="http://www.w3.org/1999/xlink" x="0px" y="0px"
	 viewBox="0 0 1167.8 347" style="enable-background:new 0 0 1167.8 347;" xml:space="preserve">
<style type="text/css">
	.st0{opacity:0.8;fill:#EEAE6A;enable-background:new    ;}
	.st1{fill:#FFFFFF;}
</style>
<g>
	<g id="RqxFph_1_">
	</g>
</g>
<image style="overflow:visible;enable-background:new    ;" width="1169" height="348" id="Layer_1_1_" xlink:href="5750B7B4A6A61AEB.png"  transform="matrix(0.9971 0 0 0.9971 1.0996 2.000000e-02)">
</image>
<g>
	<path class="st0" d="M506.2,131.4h17.6v2h-15.2v12.3h11.9v2h-11.9v14.6h-2.4L506.2,131.4L506.2,131.4z"/>
	<path class="st0" d="M527.2,147v-0.4c0-8.8,6.3-15.6,15-15.6c8.7,0,15,6.9,15,15.6v0.4c0,8.7-6.3,15.7-15,15.7
		C533.5,162.6,527.2,155.6,527.2,147z M554.8,146.9v-0.4c0-7.5-5-13.5-12.5-13.5s-12.6,5.8-12.6,13.6v0.4c0,7.9,5.5,13.6,12.7,13.6
		C549.7,160.6,554.8,154.8,554.8,146.9z"/>
	<path class="st0" d="M563.5,131.4h8.5c6,0,10.5,2.3,10.5,8.3v0.2c0,5.1-3.4,7.5-8,8.2l9.8,14.3h-2.7l-9.7-14.1h-6v14.1h-2.4
		L563.5,131.4L563.5,131.4z M572.1,146.2c5,0,8-1.9,8-6.4v-0.2c0-4.8-3.2-6.3-8-6.3h-6.2v12.9H572.1z"/>
	<path class="st0" d="M587.6,147v-0.4c0-9,6.3-15.7,14.7-15.7c5.9,0,11.2,2.8,12.4,9.2h-2.4c-1.1-5.1-5-7.3-9.9-7.3
		c-7.4,0-12.3,5.7-12.3,13.7v0.4c0,8.2,4.4,13.6,12.3,13.6c7.2,0,10.8-4.4,10.9-11.2v-0.2h-9.5v-2h11.8v1.8
		c0,8.9-5.3,13.6-13.3,13.6C593.1,162.6,587.6,156.1,587.6,147z"/>
	<path class="st0" d="M621.9,131.4h17.8v2h-15.3v12.1h12.4v2h-12.4v12.9h16.1v2h-18.5L621.9,131.4L621.9,131.4z"/>
	<path class="st0" d="M643.3,161.7l12.4-12.8c3.3-3.4,4.8-6.2,4.8-9.5c0-4.1-2.6-6.4-6.6-6.4c-4,0-6.8,2.3-7.4,7.3h-2.2
		c0.5-5.8,4.2-9.3,9.6-9.3c5.3,0,9,3.1,9,8.4c0,3.8-2.1,7.2-5.9,10.9l-10,9.9h16.3v2h-20.1L643.3,161.7L643.3,161.7z"/>
	<path class="st1" d="M275.2,198.6v-0.3c0-7.4,5.2-12.7,11.6-12.7c5.1,0,9.2,2.7,10.1,7.6h-1.3c-0.9-4.1-4-6.6-8.8-6.6
		c-5.9,0-10.4,4.8-10.4,11.6v0.3c0,7,4,11.6,10.4,11.6c4.8,0,8.3-2.6,9.2-7.1h1.2c-1,5.2-5.1,8.2-10.4,8.2
		C279.8,211.3,275.2,206.1,275.2,198.6z"/>
	<path class="st1" d="M300.5,202v-0.3c0-5.5,3.5-9.4,8.3-9.4c4.5,0,7.9,3.1,7.9,8.9v0.5h-15c0,5.4,2.6,8.5,7.4,8.5
		c3.2,0,5.6-1.4,6.3-4.3h1.2c-0.8,3.4-3.7,5.4-7.5,5.4C303.7,211.3,300.5,207.4,300.5,202z M315.5,200.7c-0.1-4.9-2.8-7.3-6.7-7.3
		s-6.8,2.9-7.1,7.3H315.5z"/>
	<path class="st1" d="M321.1,183.8h1.2V211h-1.2V183.8z"/>
	<path class="st1" d="M328.2,183.8h1.2V211h-1.2V183.8z"/>
	<path class="st1" d="M344.2,206.7v-13.1h-2.8v-1h2.8v-4.2h1.2v4.2h5.1v1h-5.1v13c0,2.5,1.2,3.6,3.1,3.6c1,0,1.7-0.1,2.3-0.4v1.1
		c-0.6,0.2-1.3,0.4-2.4,0.4C345.8,211.3,344.2,209.7,344.2,206.7z"/>
	<path class="st1" d="M360.4,209.6l-7.3-17h1.3l6.7,15.6l6.4-15.6h1.3l-10.3,24.8h-1.2L360.4,209.6z"/>
	<path class="st1" d="M372.5,192.6h1.2v5.1c1.1-2.8,3.9-5.4,7.5-5.4c4.5,0,8.2,3.6,8.2,9.3v0.3c0,5.9-3.6,9.4-8.2,9.4
		c-4,0-6.5-2.7-7.5-5.2v11.3h-1.2V192.6z M388.1,202v-0.3c0-5.4-3.2-8.3-7-8.3c-3.7,0-7.4,3-7.4,8.3v0.3c0,5.2,3.4,8.3,7.4,8.3
		C385.1,210.3,388.1,207.2,388.1,202z"/>
	<path class="st1" d="M392.3,202v-0.3c0-5.5,3.5-9.4,8.3-9.4c4.5,0,7.9,3.1,7.9,8.9v0.5h-15c0,5.4,2.6,8.5,7.4,8.5
		c3.2,0,5.6-1.4,6.3-4.3h1.2c-0.8,3.4-3.7,5.4-7.5,5.4C395.5,211.3,392.3,207.4,392.3,202z M407.3,200.7c-0.1-4.9-2.8-7.3-6.7-7.3
		s-6.8,2.9-7.1,7.3H407.3z"/>
	<path class="st1" d="M412.2,200.6h7.3v1.2h-7.3V200.6z"/>
	<path class="st1" d="M423,205.6h1.2c0.4,2.7,2.1,4.7,5.8,4.7c3.3,0,5.1-1.8,5.1-4.1c0-2.7-1.3-3.4-5.1-4.1c-4.3-0.8-6.3-1.8-6.3-5
		c0-2.9,2.7-4.7,6-4.7s5.7,1.4,6.2,4.8h-1.2c-0.5-2.6-2.2-3.8-5.1-3.8c-2.9,0-4.9,1.5-4.9,3.7c0,2.4,1.5,3.2,5.5,3.9
		c4,0.7,6,1.7,6,5.1c0,2.9-2.3,5.2-6.3,5.2C425.7,211.4,423.2,209,423,205.6z"/>
	<path class="st1" d="M440.6,192.6h1.2v5.1c1.1-2.8,3.9-5.4,7.5-5.4c4.5,0,8.2,3.6,8.2,9.3v0.3c0,5.9-3.6,9.4-8.2,9.4
		c-4,0-6.5-2.7-7.5-5.2v11.3h-1.2V192.6z M456.2,202v-0.3c0-5.4-3.2-8.3-7-8.3c-3.7,0-7.4,3-7.4,8.3v0.3c0,5.2,3.4,8.3,7.4,8.3
		C453.3,210.3,456.2,207.2,456.2,202z"/>
	<path class="st1" d="M460.4,202v-0.3c0-5.5,3.5-9.4,8.3-9.4c4.5,0,7.9,3.1,7.9,8.9v0.5h-15c0,5.4,2.6,8.5,7.4,8.5
		c3.2,0,5.6-1.4,6.3-4.3h1.2c-0.8,3.4-3.7,5.4-7.5,5.4C463.7,211.3,460.4,207.4,460.4,202z M475.5,200.7c-0.1-4.9-2.8-7.3-6.7-7.3
		s-6.8,2.9-7.1,7.3H475.5z"/>
	<path class="st1" d="M479.6,202v-0.3c0-5.6,3.9-9.4,8.7-9.4c3.7,0,7,2.1,7.5,5.9h-1.2c-0.4-3.2-3.2-4.9-6.3-4.9
		c-4.1,0-7.5,3.2-7.5,8.3v0.3c0,5.1,3.3,8.3,7.4,8.3c3.3,0,6-1.9,6.6-5.5h1.1c-0.6,3.9-3.7,6.5-7.7,6.5
		C483.4,211.3,479.6,207.6,479.6,202z"/>
	<path class="st1" d="M500,187.7c0-0.5,0.4-0.9,1-0.9s0.9,0.4,0.9,0.9s-0.4,0.9-0.9,0.9C500.4,188.6,500,188.2,500,187.7z
		 M500.3,192.6h1.2V211h-1.2V192.6z"/>
	<path class="st1" d="M508.2,193.6h-2.9v-1h2.9v-3.5c0-3.9,2.3-5.4,5.1-5.4c0.8,0,1.3,0.1,1.9,0.3v1.1c-0.5-0.2-1.1-0.3-1.9-0.3
		c-2.1,0-3.8,1.1-3.8,4.3v3.6h5.5v1h-5.5V211h-1.2L508.2,193.6L508.2,193.6z"/>
	<path class="st1" d="M518.4,187.7c0-0.5,0.4-0.9,1-0.9s0.9,0.4,0.9,0.9s-0.4,0.9-0.9,0.9C518.8,188.6,518.4,188.2,518.4,187.7z
		 M518.8,192.6h1.2V211h-1.2V192.6z"/>
	<path class="st1" d="M524.3,202v-0.3c0-5.6,3.9-9.4,8.7-9.4c3.7,0,7,2.1,7.5,5.9h-1.2c-0.4-3.2-3.2-4.9-6.3-4.9
		c-4.1,0-7.5,3.2-7.5,8.3v0.3c0,5.1,3.3,8.3,7.4,8.3c3.3,0,6-1.9,6.6-5.5h1.1c-0.6,3.9-3.7,6.5-7.7,6.5
		C528.2,211.3,524.3,207.6,524.3,202z"/>
	<path class="st1" d="M552,206.1c0-4.3,3.8-5.5,8.3-5.5h4.6v-1.8c0-3.8-1.6-5.4-5.1-5.4c-2.9,0-5.2,1.3-5.7,4.3h-1.2
		c0.5-3.6,3.6-5.3,6.9-5.3c4.1,0,6.3,2.1,6.3,6.5V211h-1.2v-3.1c-1.1,1.8-3.2,3.4-6.5,3.4C554.5,211.3,552,209.5,552,206.1z
		 M564.9,205.4v-3.8h-4.6c-3.9,0-7.1,0.9-7.1,4.5c0,2.7,1.8,4.1,5.2,4.1C561.9,210.3,564.9,208.1,564.9,205.4z"/>
	<path class="st1" d="M571.6,192.6h1.2v4c0.8-2.2,3.5-4.3,6.9-4.3c4,0,6.6,2.2,6.6,7.3V211H585v-11.4c0-4.3-2.1-6.2-5.6-6.2
		c-3.3,0-6.7,2.2-6.7,6.5V211h-1.2L571.6,192.6L571.6,192.6z"/>
	<path class="st1" d="M590.5,206.1c0-4.3,3.8-5.5,8.3-5.5h4.6v-1.8c0-3.8-1.6-5.4-5.1-5.4c-2.9,0-5.2,1.3-5.7,4.3h-1.2
		c0.5-3.6,3.6-5.3,6.9-5.3c4.1,0,6.3,2.1,6.3,6.5V211h-1.2v-3.1c-1.1,1.8-3.2,3.4-6.5,3.4C593,211.3,590.5,209.5,590.5,206.1z
		 M603.4,205.4v-3.8h-4.6c-3.9,0-7.1,0.9-7.1,4.5c0,2.7,1.8,4.1,5.2,4.1C600.4,210.3,603.4,208.1,603.4,205.4z"/>
	<path class="st1" d="M610.2,183.8h1.2V211h-1.2V183.8z"/>
	<path class="st1" d="M622.5,209.6l-7.3-17h1.3l6.7,15.6l6.4-15.6h1.3l-10.3,24.8h-1.2L622.5,209.6z"/>
	<path class="st1" d="M632.8,205.6h1.2c0.3,2.7,2.2,4.7,5.8,4.7c3.3,0,5.1-1.8,5.1-4.1c0-2.7-1.3-3.4-5.1-4.1
		c-4.3-0.8-6.3-1.8-6.3-5c0-2.9,2.7-4.7,6-4.7s5.7,1.4,6.2,4.8h-1.2c-0.5-2.6-2.2-3.8-5.1-3.8c-2.9,0-4.9,1.5-4.9,3.7
		c0,2.4,1.5,3.2,5.5,3.9c4,0.7,6,1.7,6,5.1c0,2.9-2.3,5.2-6.3,5.2C635.6,211.4,633.1,209,632.8,205.6z"/>
	<path class="st1" d="M650.2,187.7c0-0.5,0.4-0.9,1-0.9s0.9,0.4,0.9,0.9s-0.4,0.9-0.9,0.9C650.6,188.6,650.2,188.2,650.2,187.7z
		 M650.5,192.6h1.2V211h-1.2V192.6z"/>
	<path class="st1" d="M655.9,205.6h1.2c0.3,2.7,2.2,4.7,5.8,4.7c3.3,0,5.1-1.8,5.1-4.1c0-2.7-1.3-3.4-5.1-4.1
		c-4.3-0.8-6.3-1.8-6.3-5c0-2.9,2.7-4.7,6-4.7s5.7,1.4,6.2,4.8h-1.2c-0.5-2.6-2.2-3.8-5.1-3.8c-2.9,0-4.9,1.5-4.9,3.7
		c0,2.4,1.5,3.2,5.5,3.9c4,0.7,6,1.7,6,5.1c0,2.9-2.3,5.2-6.3,5.2C658.7,211.4,656.2,209,655.9,205.6z"/>
	<path class="st1" d="M680.5,202v-0.3c0-5.5,4-9.3,8.8-9.3c4.8,0,8.7,3.7,8.7,9.3v0.3c0,5.6-4,9.4-8.8,9.4
		C684.4,211.3,680.5,207.4,680.5,202z M696.8,201.9v-0.3c0-5.2-3.5-8.3-7.5-8.3c-4.1,0-7.6,3.2-7.6,8.3v0.3c0,5,3.4,8.3,7.6,8.3
		C693.4,210.3,696.8,207.1,696.8,201.9z"/>
	<path class="st1" d="M703.1,193.6h-2.9v-1h2.9v-3.5c0-3.9,2.3-5.4,5.1-5.4c0.8,0,1.3,0.1,1.9,0.3v1.1c-0.5-0.2-1.1-0.3-1.9-0.3
		c-2.1,0-3.8,1.1-3.8,4.3v3.6h5.5v1h-5.5V211h-1.2V193.6z"/>
	<path class="st1" d="M720.8,198.6v-0.3c0-7.4,5.2-12.7,11.9-12.7c4.8,0,9,2.2,10,7.1h-1.3c-1-4.2-4.4-6.1-8.7-6.1
		c-6.2,0-10.6,4.8-10.6,11.6v0.3c0,7,3.9,11.6,10.7,11.6c6.2,0,9.5-3.7,9.5-9.8v-0.2h-8V199h9.2v1.2c0,7.2-4.3,11.1-10.7,11.1
		C725.3,211.3,720.8,206,720.8,198.6z"/>
	<path class="st1" d="M745.7,185.9h1.3l6.2,23.3l7.1-23.3h0.9l6.7,23.4l6.6-23.4h1.2l-7.2,25.2h-1.3l-6.5-22.8l-7,22.8h-1.3
		L745.7,185.9z"/>
	<path class="st1" d="M784.7,185.9h1.7l9.4,25.2h-1.3l-3-8h-11.9l-3,8h-1.2L784.7,185.9z M779.9,201.9h11.2l-5.6-15.1L779.9,201.9z"
		/>
	<path class="st1" d="M797.5,204.1h1.2c0.5,3.3,2.6,6.1,7.9,6.1c4.4,0,7-2.5,7-5.8c0-3.9-1.9-5.1-7.2-5.9c-5.6-0.8-8-2.8-8-6.4
		c0-3.9,3.1-6.4,7.8-6.4c4.5,0,7.2,2.2,7.7,5.9h-1.2c-0.6-3.1-2.6-4.9-6.5-4.9c-4.1,0-6.6,1.9-6.6,5.3c0,3,1.7,4.6,6.9,5.4
		c5.7,0.8,8.2,2.3,8.2,7c0,3.8-3.1,6.9-8.3,6.9C800.8,211.3,798,208.1,797.5,204.1z"/>
	<path class="st1" d="M826.5,202v-0.3c0-5.7,3.8-9.4,8.5-9.4c3.9,0,6.1,2.5,7.1,5.1v-13.6h1.2V211h-1.2v-4.9
		c-0.9,2.4-3.5,5.2-7.4,5.2C830.2,211.3,826.5,207.9,826.5,202z M842.2,202v-0.3c0-5.3-3.1-8.3-7.1-8.3c-4.1,0-7.4,3-7.4,8.3v0.3
		c0,5.3,3.1,8.3,7.1,8.3C838.8,210.3,842.2,207.2,842.2,202z"/>
	<path class="st1" d="M847.8,206.1c0-4.3,3.8-5.5,8.3-5.5h4.6v-1.8c0-3.8-1.6-5.4-5.1-5.4c-2.9,0-5.2,1.3-5.7,4.3h-1.2
		c0.5-3.6,3.6-5.3,6.9-5.3c4.1,0,6.3,2.1,6.3,6.5V211h-1.2v-3.1c-1.1,1.8-3.2,3.4-6.5,3.4C850.3,211.3,847.8,209.5,847.8,206.1z
		 M860.7,205.4v-3.8h-4.6c-3.9,0-7.1,0.9-7.1,4.5c0,2.7,1.8,4.1,5.2,4.1C857.7,210.3,860.7,208.1,860.7,205.4z"/>
	<path class="st1" d="M868.2,206.7v-13.1h-2.8v-1h2.8v-4.2h1.2v4.2h5.1v1h-5.1v13c0,2.5,1.2,3.6,3.1,3.6c1,0,1.7-0.1,2.3-0.4v1.1
		c-0.6,0.2-1.3,0.4-2.4,0.4C869.7,211.3,868.2,209.7,868.2,206.7z"/>
	<path class="st1" d="M877.7,206.1c0-4.3,3.8-5.5,8.3-5.5h4.6v-1.8c0-3.8-1.6-5.4-5.1-5.4c-2.9,0-5.2,1.3-5.7,4.3h-1.2
		c0.5-3.6,3.6-5.3,6.9-5.3c4.1,0,6.3,2.1,6.3,6.5V211h-1.2v-3.1c-1.1,1.8-3.2,3.4-6.5,3.4C880.2,211.3,877.7,209.5,877.7,206.1z
		 M890.6,205.4v-3.8H886c-3.9,0-7.1,0.9-7.1,4.5c0,2.7,1.8,4.1,5.2,4.1C887.6,210.3,890.6,208.1,890.6,205.4z"/>
</g>
</svg>
