<?xml version="1.0" encoding="utf-8"?>
<!-- Generator: Adobe Illustrator 23.0.3, SVG Export Plug-In . SVG Version: 6.00 Build 0)  -->
<svg version="1.1" baseProfile="tiny" id="Layer_1" xmlns="http://www.w3.org/2000/svg" xmlns:xlink="http://www.w3.org/1999/xlink"
	 x="0px" y="0px" viewBox="0 0 270 100" xml:space="preserve">
<rect width="270" height="100"/>
<g>
	<path fill="#FFFFFF" d="M38.88,35.23h16.28v1.84H41.12v11.36h11.04v1.84H41.12v13.56h-2.24C38.88,63.83,38.88,35.23,38.88,35.23z"
		/>
	<path fill="#FFFFFF" d="M66.32,49.71v-0.32c0-8.12,5.88-14.48,13.92-14.48c8.08,0,13.92,6.36,13.92,14.4v0.32
		c0,8.08-5.84,14.52-13.84,14.52C72.16,64.15,66.32,57.71,66.32,49.71z M91.84,49.59v-0.32c0-6.96-4.6-12.52-11.6-12.52
		s-11.64,5.4-11.64,12.6v0.32c0,7.28,5.08,12.6,11.72,12.6C87.16,62.27,91.84,56.91,91.84,49.59z"/>
	<path fill="#FFFFFF" d="M107.92,35.23h7.84c5.56,0,9.72,2.16,9.72,7.68v0.16c0,4.76-3.12,6.96-7.4,7.56l9.08,13.2h-2.48
		l-8.96-13.04h-5.56v13.04h-2.24V35.23z M115.88,48.99c4.6,0,7.36-1.76,7.36-5.92v-0.16c0-4.4-2.92-5.84-7.36-5.84h-5.72v11.92
		C110.16,48.99,115.88,48.99,115.88,48.99z"/>
	<path fill="#FFFFFF" d="M138.2,49.71v-0.32c0-8.36,5.8-14.52,13.64-14.52c5.48,0,10.4,2.56,11.48,8.52h-2.24
		c-1.04-4.72-4.64-6.72-9.2-6.72c-6.88,0-11.4,5.24-11.4,12.68v0.32c0,7.6,4.08,12.64,11.44,12.64c6.68,0,10.04-4.12,10.12-10.4
		v-0.16h-8.8v-1.88h10.96v1.64c0,8.24-4.92,12.64-12.28,12.64C143.32,64.15,138.2,58.11,138.2,49.71z"/>
	<path fill="#FFFFFF" d="M178,35.23h16.44v1.84h-14.2v11.16h11.52v1.84h-11.52v11.92h14.92v1.84H178V35.23z"/>
</g>
<g>
	<path fill="#FFFFFF" d="M209.8,63.48l11.48-11.88c3.04-3.12,4.48-5.72,4.48-8.8c0-3.8-2.4-5.88-6.08-5.88
		c-3.68,0-6.28,2.12-6.84,6.8h-2.08c0.44-5.4,3.92-8.64,8.92-8.64c4.92,0,8.32,2.84,8.32,7.8c0,3.48-1.92,6.68-5.44,10.12
		l-9.24,9.16h15.08V64h-18.6V63.48z"/>
</g>
</svg>
